<svg xmlns="http://www.w3.org/2000/svg" viewBox="0 0 419.52 309.24"><defs><style>.cls-1{isolation:isolate;}.cls-2{fill:#819699;}.cls-3{fill:#eddba2;}.cls-4{fill:#e0c780;}.cls-5{fill:#ddd1b3;}.cls-6{fill:#ccbe9e;}.cls-7{fill:#ede6d1;}.cls-8{fill:#f4eedf;}.cls-9{fill:#e0d4b6;}.cls-10,.cls-14{fill:#514c4d;}.cls-11{fill:#443c3c;}.cls-12{fill:#775f93;}.cls-13{fill:#f4eee1;mix-blend-mode:overlay;}.cls-14{opacity:0.51;mix-blend-mode:multiply;}.cls-15{fill:#6994b7;}.cls-16{fill:#517d9b;}.cls-17{fill:#6d2c25;}.cls-18{fill:#e79b69;}.cls-19{fill:#d8c387;}.cls-20{fill:#5281a0;}.cls-21{fill:#edb984;}.cls-22{fill:#e88d3a;}.cls-23{fill:#d27558;}.cls-24{fill:#f4e4b8;}.cls-25{fill:#84392d;}.cls-26{fill:#edc451;}.cls-27{fill:#eaad42;}.cls-28{fill:#c6a85c;}.cls-29{fill:#ddc685;}.cls-30{fill:#b2ccce;}.cls-31{fill:#d3eced;}.cls-32{fill:#91aeaf;}.cls-33{fill:#f9eac0;}.cls-34{fill:#4c4545;}.cls-35{fill:#605757;}.cls-36{fill:#3d3636;}.cls-37{fill:#dbc077;}.cls-38{fill:#5a4949;}.cls-39{fill:#59221e;}.cls-40{fill:#91b4b5;}</style></defs><g class="cls-1"><g id="图层_2" data-name="图层 2"><g id="_1" data-name="1"><path class="cls-2" d="M26.64,255.7V252l-3.22-.65a10,10,0,0,0-.8-1.94l1.81-2.74L21.79,244l-2.74,1.81a8.63,8.63,0,0,0-1.93-.8l-.66-3.22H12.73L12.07,245a8.83,8.83,0,0,0-1.93.8L7.4,244l-2.63,2.63,1.8,2.74a9.4,9.4,0,0,0-.79,1.94L2.56,252v3.73l3.22.66a9.1,9.1,0,0,0,.79,1.93L4.77,261l2.63,2.64,2.74-1.81a9.35,9.35,0,0,0,1.93.8l.66,3.22h3.73l.66-3.22a9.13,9.13,0,0,0,1.93-.8l2.74,1.81L24.43,261l-1.81-2.74a9.68,9.68,0,0,0,.8-1.93Zm-12,2.18a4,4,0,1,1,4-4A4,4,0,0,1,14.6,257.88Z"/><rect class="cls-3" x="6.6" y="270.09" width="41.42" height="37.79"/><polygon class="cls-4" points="18.99 270.89 33.68 297.87 48.16 273.21 34.05 292.54 18.99 270.89"/><rect class="cls-4" x="0.11" y="270.09" width="18.57" height="37.79"/><polygon class="cls-5" points="226.16 265.5 182.5 264.36 174.73 302.9 232.55 302.9 226.16 265.5"/><polygon class="cls-6" points="225.87 263.8 182.32 265.27 177.71 288.15 229.5 285.03 225.87 263.8"/><rect class="cls-7" x="155.58" y="301.92" width="96.13" height="7.32"/><path class="cls-7" d="M344.53,58.88H62.75c-6.84,0-12.38,5.28-12.38,11.8v191.6c0,6.52,5.54,11.81,12.38,11.81H344.53c6.84,0,12.39-5.29,12.39-11.81V70.68C356.92,64.16,351.37,58.88,344.53,58.88Z"/><polygon class="cls-8" points="106.74 274.09 230.83 274.09 273.65 58.88 149.57 58.88 106.74 274.09"/><path class="cls-9" d="M344.53,271.06H62.75a12.38,12.38,0,0,1-12.38-12.39v3c0,6.84,5.54,12.39,13.46,13.08H345.61a13.45,13.45,0,0,0,11.31-13.08v-3A12.39,12.39,0,0,1,344.53,271.06Z"/><path class="cls-10" d="M344.53,58.88H62.75c-6.84,0-12.38,5.28-12.38,11.8V239.5H356.92V70.68C356.92,64.16,351.37,58.88,344.53,58.88Z"/><rect class="cls-11" x="61.03" y="67.66" width="285.23" height="171.84"/><rect class="cls-12" x="64.6" y="70.49" width="277.72" height="169.01"/><path class="cls-6" d="M220.68,255.76H186.61c-1.37,0-2.49.72-2.49,1.6s1.12,1.59,2.49,1.59h34.07c1.37,0,2.48-.71,2.48-1.59S222.05,255.76,220.68,255.76Z"/><path class="cls-13" d="M344.53,58.88H62.75A12.39,12.39,0,0,0,50.37,71.27v2.59A12.39,12.39,0,0,1,62.75,61.47H344.53a12.39,12.39,0,0,1,12.39,12.39V71.27A12.39,12.39,0,0,0,344.53,58.88Z"/><path class="cls-14" d="M327.67,156.57l.33-.48c.45-.66.91-1.35,1.38-2.06q.36-.53.72-1.08c.49-.72,1-1.47,1.48-2.22,2.48-3.79,5.06-7.85,7.14-11.41.41-.72.81-1.41,1.17-2.08.56-1,1.05-1.94,1.48-2.79s.77-1.64,1-2.32a9.44,9.44,0,0,0,.49-1.7,1.07,1.07,0,0,0-.07-.41s0-.05,0-.07a2.79,2.79,0,0,0-.27-.5l0-.07a10,10,0,0,0-1.14-1.33h0c-3.75-3.77-13.08-9.81-14.36-9.5s-13,17-18.14,24.76h0l-.57.87-.08.11-.53.82a6.68,6.68,0,0,0-.92,5,10.45,10.45,0,0,0,.39,1.43,12.43,12.43,0,0,0,.6,1.41,15.27,15.27,0,0,0,.77,1.36c.27.45.57.88.88,1.3.46.63,1,1.24,1.46,1.8s1,1.09,1.48,1.57l.47.47.88.82.4.35c.9.78,1.5,1.23,1.5,1.23a8.31,8.31,0,0,0,.76.44,5.4,5.4,0,0,0,.49.23l-30.4,24.19a25.26,25.26,0,0,1-3.17-2,31.38,31.38,0,0,0,1.89-3.64S264.71,157.22,229,131.63c-1-.73-1.94-1.42-2.95-2.1h0c-.82-.55-1.65-1.09-2.49-1.61l-.16-.1c-.75-.47-1.51-.92-2.27-1.37l-.38-.21-1.35-.77a19,19,0,0,0,8.86-12.32S212.09,95.34,210,87.47c-1.2-4.59-2.54-11.62-5.39-17.24l.09.06a55.76,55.76,0,0,0,4.82-11.41H148.44l-1.52.72a14.05,14.05,0,0,0-5.1,3.65,6.81,6.81,0,0,0-1.2,2.25,9.67,9.67,0,0,0,.43,5.86c1.15,3.4,3.7,7.68,7.7,13.23l0,.11a59.91,59.91,0,0,0,19.8,22.41l1.21,9.51-.58-.35-4.08,6.17.33.26c-.67.34-1.34.7-2,1l-.28.15c-.78.42-1.56.85-2.33,1.29l-.08,0a128.81,128.81,0,0,0-13.48,8.66c-14.39,7.57-25.31,27.59-34.84,47.34.61,1.18,1.27,2.34,2,3.49a16.74,16.74,0,0,1-2.47,2.45l-3.1-2.17L55.71,148.93c5.37-6.32,11.27-12.29,17.1-16.34q.66.33,1.35.6h0c.42.17.84.33,1.27.47l.13.05c.39.12.78.24,1.17.34l.17,0c.39.1.77.19,1.16.26l.15,0c.4.08.8.13,1.19.18h.12c.41,0,.81.06,1.22.07h.08c.42,0,.83,0,1.25,0h0q.65,0,1.26-.15h0a12.59,12.59,0,0,0,1.25-.27,10.32,10.32,0,0,0,6.19-4.63c5.36-8.65-2.71-10-2.71-10l0,0v0a.67.67,0,0,0-.06.12h0c-.47.85-2.51,4.3-5.56,5.56a6,6,0,0,1-5.94-.76c-6.83-4.55,3.58-10.78,3.58-10.78a13.65,13.65,0,0,0-5.24-.93,11,11,0,0,0-2.92.48l-.09,0a10.46,10.46,0,0,0-1.29.5h0a10.21,10.21,0,0,0-2.28,1.43l-.08.06c-.32.28-.63.57-.92.87l0,0a10.34,10.34,0,0,0-1.45,2s0,.09-.07.13a9.09,9.09,0,0,0-.48,1.06s0,.09,0,.13a8.86,8.86,0,0,0-.34,1.11v0a8.43,8.43,0,0,0-.18,1.12,1.23,1.23,0,0,1,0,.19,9.93,9.93,0,0,0,0,1.09c0,.06,0,.13,0,.19a6.78,6.78,0,0,0,.16,1.1v0a7.11,7.11,0,0,0,.34,1.08c0,.07,0,.14.07.2a8,8,0,0,0,.51,1,1.18,1.18,0,0,0,.11.19,10.91,10.91,0,0,0,.72,1c.38.44.8.87,1.23,1.29q-.81,1.29-1.68,2.61c-.21.31-.44.63-.66.94-.38.56-.76,1.12-1.16,1.68s-.61.84-.92,1.26-.66.92-1,1.39l-1.07,1.4c-.33.43-.64.84-1,1.27s-.81,1-1.21,1.51l-.94,1.17L56.78,144c-.29.36-.59.71-.89,1.07l-1.52,1.75-.64.74-3.36-2.28v36.11C55,191.32,86,211.61,107,220.84h0c5.17,2.47,10.43,4.08,15.11,3.83,7-.37,14.25-4.82,20.42-9.93,4.85,3.72,8.22,5.83,8.22,5.83s1.56-3.17,3.67-8l2.73,26.93H260.28c-.17-1.56-1.59-14.38-3.87-30.25,7.69,6.91,17.51,14.26,25.2,14.95,5.5.5,11.73-1.47,17.38-4.14,17.46-7.66,28-26.85,35.79-37.41l.25.15c6.16,3.21,7.78-3.42,7.37-6.71C342.08,173.44,331.69,161.22,327.67,156.57Z"/><path class="cls-14" d="M338.89,212.36q-1,0-2.1.06h-.05a46.58,46.58,0,0,0-6.81.83l-7.88,1c-1.13.1-2.25.23-3.35.41l-.2,0h0c-21.93,3.59-39.8,22.37-41.4,45a44,44,0,0,0,1.5,15.11H346.9a11.45,11.45,0,0,0,7.25-4.14,10.14,10.14,0,0,0,2.77-6.93V216.24A43.08,43.08,0,0,0,338.89,212.36Z"/><path class="cls-15" d="M208.08,16.07c-7.93-9.33-24.61-.71-35.11,5.12-9.7,5.39-10.43,12.2-1.9,30.35L219.74,32S218.4,28.22,208.08,16.07Z"/><path class="cls-16" d="M176.86,19.08c-1.37.72-2.67,1.43-3.89,2.11-9.7,5.39-10.43,12.2-1.9,30.35l33-13.26C190.26,37.11,179.23,29.22,176.86,19.08Z"/><path class="cls-17" d="M193.34,27.59c-14.93,1.05-22.51,23.65-22.51,23.65s3.88,16,16.3,26.92l3.8-1.32S208.26,26.55,193.34,27.59Z"/><path class="cls-18" d="M280.23,160.67s9.8,12,13.34,13.64,16.22-6.9,16.22-6.9l10.47,34.13s-22.95,20.53-37.78,18.89-34-33.76-34-33.76Z"/><path class="cls-18" d="M126.94,163.92s-6.47,11.27-10.55,12.82-17.84-15-17.84-15L84.77,193.33s20.59,29.09,37.6,27.94,39.72-32,39.72-32Z"/><path class="cls-3" d="M243.32,106.89l5,93.54c30-2.51,44.24-33.39,44.24-33.39S275.41,137.82,243.32,106.89Z"/><path class="cls-19" d="M243.46,109.54l4.82,90.89A45.71,45.71,0,0,0,266.39,195c1.92-10.34,2-23.05-.2-36.52C262.52,136,253.5,117.49,243.46,109.54Z"/><path class="cls-15" d="M154.79,239.66H258.48s3.16-91-3.94-114.78S215.69,88,208.63,86.9c-13.77-2.08-50.09,23.79-54.68,31.31s3.34,68.86,3.34,68.86Z"/><path class="cls-20" d="M258.87,170.27c-.6,63-20.4,65.73-44.77,65.73-24.74,0-44.79-2.74-44.79-68.62,0-25.32,3-48.78,8-68.1-11.16,7.08-21.12,15.23-23.38,18.93-4.59,7.51,3.34,68.86,3.34,68.86l-2.5,52.59H258.48S259.75,203.1,258.87,170.27Z"/><path class="cls-20" d="M176.66,239.66a250.8,250.8,0,0,0,4.59-49.5c0-37.63-7.09-69.66-17-81.7-5.15,4-9,7.62-10.3,9.75-4.59,7.51,3.34,68.86,3.34,68.86l-2.5,52.59Z"/><path class="cls-3" d="M119.73,168.29c7.93,27.55,31.72,47.89,31.72,47.89s20.74-39.24,22.54-58.85c3.13-34.12-12.36-46.77-12.36-46.77C146.23,119.88,132.29,144.23,119.73,168.29Z"/><path class="cls-19" d="M144.47,198.75c-9.6-2.6-11.86-25.11-5-50.29,3.63-13.42,9.11-24.88,14.89-32.27-12.53,11.54-24,31.91-34.59,52.1,7.93,27.55,31.72,47.89,31.72,47.89s19.2-36.33,22.25-56.54C166.75,183.9,153.84,201.29,144.47,198.75Z"/><path class="cls-19" d="M161.63,110.56a46.32,46.32,0,0,0-7.22,5.55,59.46,59.46,0,0,0,14.55,5C165.48,113.71,161.63,110.56,161.63,110.56Z"/><path class="cls-21" d="M293,174c-5.43,17.12-8.44,31.68,7.83,41.28,19.72-9.95,41.25-32.35,45.85-48.14L330,149Z"/><path class="cls-18" d="M330,149l-11.35,7.65c3.54-.46,4.38,1.81,6.5,3.7C332.07,166.52,329,182,315.7,197a64.75,64.75,0,0,1-19.19,15.2,32.82,32.82,0,0,0,4.3,3c19.72-9.95,41.25-32.35,45.85-48.14Z"/><path class="cls-21" d="M118.27,175.53c15.45,16.74,8.41,32.82-9.8,38.1C89.21,202.42,72.92,177.93,70,166l17.56-20.21Z"/><path class="cls-18" d="M118.27,175.53l-2.71-2.64c3.22,12.2,2.07,22.31-3.92,25.75-9,5.16-25.5-6.68-36.83-26.44-1.41-2.46-2.67-4.93-3.79-7.38L70,166c2.89,12,18.77,39.43,38,50.65C126.26,211.33,133.72,192.27,118.27,175.53Z"/><rect class="cls-3" x="38.62" y="228.04" width="14.99" height="8.17" rx="2.55"/><rect class="cls-8" x="43.2" y="228.14" width="7.25" height="8.17" rx="2.55"/><path class="cls-2" d="M414.78,188.23v-6l-5.16-1.05a15.1,15.1,0,0,0-1.28-3.1l2.9-4.4L407,169.48l-4.39,2.9a14.56,14.56,0,0,0-3.1-1.28l-1.06-5.16h-6l-1.06,5.16a14.56,14.56,0,0,0-3.1,1.28l-4.39-2.9-4.22,4.22,2.9,4.4a14.56,14.56,0,0,0-1.28,3.1l-5.16,1.05v6l5.16,1.05a14.56,14.56,0,0,0,1.28,3.1l-2.9,4.4,4.22,4.22,4.39-2.9a14.56,14.56,0,0,0,3.1,1.28l1.06,5.16h6l1.06-5.16a14.56,14.56,0,0,0,3.1-1.28L407,201l4.23-4.22-2.9-4.4a15.1,15.1,0,0,0,1.28-3.1Zm-19.3,8a10.95,10.95,0,1,1,10.95-10.95A11,11,0,0,1,395.48,196.19Z"/><path class="cls-2" d="M393,155.37v-4.91l-4.25-.87a11.33,11.33,0,0,0-1-2.54l2.39-3.61L386.63,140,383,142.35a11.33,11.33,0,0,0-2.54-1l-.87-4.25H374.7l-.87,4.25a11.41,11.41,0,0,0-2.55,1L367.67,140l-3.47,3.48,2.38,3.61a12.35,12.35,0,0,0-1.05,2.54l-4.24.87v4.91l4.24.87a12.43,12.43,0,0,0,1.05,2.55l-2.38,3.61,3.47,3.47,3.61-2.38a12.43,12.43,0,0,0,2.55,1l.87,4.24h4.91l.87-4.24a12.35,12.35,0,0,0,2.54-1l3.61,2.38,3.48-3.47-2.39-3.61a11.41,11.41,0,0,0,1-2.55Zm-15.87,4.52a7,7,0,1,1,7-7A7,7,0,0,1,377.15,159.89Z"/><path class="cls-18" d="M345.28,130.87A51.43,51.43,0,0,0,327.75,148a9.16,9.16,0,0,0,1.69,11.62l3.91,3.59c2.86,2.63,9.94,4.95,14.76,2.77,5.06-2.3,8-9.51,10.28-13.57C364.33,141.81,349.24,128.54,345.28,130.87Z"/><polygon class="cls-22" points="331.41 130.44 341.43 140.45 339.92 151.05 324.9 139.13 331.41 130.44"/><path class="cls-3" d="M325.83,146.77S337.68,167,344.5,168.64s7.69-6.75,6.86-10.47-19.6-19.25-19.6-19.25Z"/><path class="cls-3" d="M208.63,86.9c-8.85-1.34-27,8.87-40.07,18.33,14.14,19.7,17.05,44.88,16.78,61.26a6,6,0,0,0,6,6.1l50,.56a6,6,0,0,0,6.09-5.63c.78-12.39,1.6-42.34-6.72-63.14C228.71,93.57,213.29,87.61,208.63,86.9Z"/><path class="cls-19" d="M240.69,104.38c-3-2.7-5.85-4.44-4.17-2.92,8.32,20.8,7.5,50.75,6.72,63.14a6,6,0,0,1-6.09,5.63l-50-.55a7.78,7.78,0,0,1-1-.11,6,6,0,0,0,5.14,3l50,.56a6,6,0,0,0,6.09-5.63C248.19,155.13,249,125.18,240.69,104.38Z"/><path class="cls-19" d="M208.63,86.9c-8.85-1.34-27,8.87-40.07,18.33a79.67,79.67,0,0,1,9.33,17.35,120.5,120.5,0,0,0,22.4.44c17.57-1.25,33-5.89,42.63-12.1-.66-2.25-1.39-4.45-2.23-6.54C228.71,93.57,213.29,87.61,208.63,86.9Z"/><path class="cls-23" d="M186.51,93.37l.83-34.43,24.84-.21L218.85,90C216.77,106.73,193.81,109.65,186.51,93.37Z"/><path class="cls-24" d="M181.08,96.5l5-7.51s16.79,13.84,23.16,12.31c4.16-1,9.81-14,9.81-14L226,93.16l-.25,17.42-14.17-2L201,117.52Z"/><path class="cls-25" d="M183.32,42.17a127.48,127.48,0,0,0,17.2,61.19s16.65,2.68,29-1.36,15.83-17.58,15.83-17.58S232,63.07,231.13,53.6s-1-27.6-10.33-30.69S183,19.66,183.32,42.17Z"/><path class="cls-17" d="M228.06,35.57c.35,0,.69,0,1,0-1.32-6-3.69-11.17-8.29-12.69-9.34-3.09-37.77-3.25-37.48,19.26a122.75,122.75,0,0,0,5.18,33.21C190.88,53,207.68,35.57,228.06,35.57Z"/><path class="cls-21" d="M185.11,54c-4-2.77-7.86-1.86-8.67,2s1.76,9.31,5.74,12.08,7.87,1.86,8.67-2S189.09,56.72,185.11,54Z"/><path class="cls-3" d="M227,0C204.9,1.27,177.37,27.8,171.07,51.54,181.1,34.09,215.91,21,228.46,33,228.46,33,249.07-1.21,227,0Z"/><path class="cls-21" d="M195.57,39.28s.39,19.23,3.85,23.37,29.44-2.2,29.65-5.31-2.36-19.5-3-22.2C223.41,24.9,195.76,30.29,195.57,39.28Z"/><path class="cls-18" d="M223.72,38.07c1,0,1.94,0,2.89.1-.24-1.41-.45-2.5-.59-3-2.61-10.24-30.26-4.85-30.45,4.14,0,0,.08,3.86.47,8.49C202.73,41.84,212.64,38.07,223.72,38.07Z"/><path class="cls-26" d="M80.58,237.3c-2.18-1.91-45.23-4.36-45.23-4.36-3.54,12.53-5.72,52.86,1.36,74.94h66.22S104,257.76,80.58,237.3ZM78.27,290s-5.21-36.46-5-46.46C79.72,242.66,93.06,272,93.06,290Z"/><path class="cls-2" d="M37.53,218.41l-1.18-5.63-5.07,0a14.41,14.41,0,0,0-1.81-2.67l1.86-4.7-4.81-3.15L23,205.88a14.09,14.09,0,0,0-3.17-.6l-2-4.65-5.63,1.18,0,5.07a13.94,13.94,0,0,0-2.67,1.81l-4.7-1.87-3.15,4.81,3.6,3.57a14,14,0,0,0-.6,3.17l-4.65,2L1.18,226l5.07,0a13.63,13.63,0,0,0,1.81,2.67l-1.87,4.71L11,236.5l3.57-3.59a14,14,0,0,0,3.17.59l2,4.66L25.38,237l0-5.07A14.08,14.08,0,0,0,28,230.1L32.73,232l3.14-4.81-3.59-3.56a14.08,14.08,0,0,0,.59-3.17ZM20,225.5a6.24,6.24,0,1,1,4.83-7.38A6.24,6.24,0,0,1,20,225.5Z"/><path class="cls-27" d="M99.33,274.3c2.48,20.73-4.19,26.81-20.63,26.81s-31.34-13.84-39.27-40.53A77.29,77.29,0,0,1,36.2,233l-.85-.05c-3.54,12.53-5.72,52.86,1.36,74.94h66.22A158,158,0,0,0,99.33,274.3Z"/><path class="cls-27" d="M69.38,241.43C69.1,252.59,76,293.29,76,293.29H95.7C95.7,273.29,86.6,241.43,69.38,241.43ZM78.27,290s-5.21-36.46-5-46.46C79.72,242.66,93.06,272,93.06,290Z"/><polygon class="cls-3" points="67.43 261 36.18 261 38.68 289.54 69.93 289.54 67.43 261"/><polygon class="cls-3" points="63.97 253.91 36.81 253.91 37.35 257.66 64.52 257.66 63.97 253.91"/><polygon class="cls-28" points="1.24 270.94 8.35 291.8 17.52 270.94 8.66 288.19 1.24 270.94"/><polygon class="cls-28" points="17.41 305.97 8.64 288.75 1.14 305.97 8.62 291.72 17.41 305.97"/><path class="cls-23" d="M184.07,57.13c-2.51-1.92-4.85-1.58-5.23.76s1.33,5.79,3.84,7.71,4.85,1.57,5.24-.76S186.58,59.05,184.07,57.13Z"/><path class="cls-21" d="M186.53,62c-1.53-1.18-3-.88-3.34.66a5.68,5.68,0,0,0,2.2,5c1.53,1.18,3,.88,3.34-.67A5.64,5.64,0,0,0,186.53,62Z"/><path class="cls-29" d="M228.53,2.23c3.76-.21,6.26.62,7.85,2.12C235.13,1.5,232.31-.27,227,0,204.9,1.27,177.37,27.8,171.07,51.54a32.41,32.41,0,0,1,4.46-5.89C185.07,24.34,208.93,3.33,228.53,2.23Z"/><ellipse class="cls-24" cx="189.87" cy="183.36" rx="3.13" ry="4.58"/><path class="cls-24" d="M247,182.45c0-2.53-1.4-4.58-3.12-4.58s-3.13,2-3.13,4.58,1.4,4.59,3.13,4.59S247,185,247,182.45Z"/><path class="cls-20" d="M193.2,194.19H179.87v-1.67H193.2a3.89,3.89,0,0,0,3.89-3.89V180h1.67v8.61A5.57,5.57,0,0,1,193.2,194.19Z"/><path class="cls-20" d="M246.81,194.19H240c-2.34,0-4.25-2.49-4.25-5.56V180h1.67v8.61c0,2.11,1.18,3.89,2.58,3.89h6.86a3.89,3.89,0,0,0,3.89-3.89v-7.22h1.67v7.22A5.56,5.56,0,0,1,246.81,194.19Z"/><path class="cls-30" d="M333.73,93.3h7.11a3.33,3.33,0,0,1,3.33,3.33v11.69a0,0,0,0,1,0,0H330.4a0,0,0,0,1,0,0V96.63A3.33,3.33,0,0,1,333.73,93.3Z" transform="translate(66.36 -123.96) rotate(23.04)"/><polygon class="cls-30" points="349.43 75.02 347.65 74.27 338.33 96.39 340.11 97.14 349.43 75.02"/><path class="cls-30" d="M341.91,90a3.14,3.14,0,0,0-4.12,1.66l-1.45,3.41,5.78,2.45,1.45-3.41A3.14,3.14,0,0,0,341.91,90Z"/><path class="cls-31" d="M343.5,95.29,337,92.51a3.33,3.33,0,0,0-2.91.16c.08.17.14.34.23.5,2.67,4.88,7.59,7.33,11,5.47a2.48,2.48,0,0,0,.26-.19A3.33,3.33,0,0,0,343.5,95.29Z"/><polygon class="cls-32" points="344.15 87.55 342.82 85.72 341.88 87.96 343.2 89.8 344.15 87.55"/><polygon class="cls-32" points="345.84 83.55 344.51 81.72 343.56 83.96 344.89 85.8 345.84 83.55"/><polygon class="cls-32" points="347.52 79.55 346.19 77.72 345.25 79.96 346.58 81.79 347.52 79.55"/><polygon class="cls-32" points="349.21 75.55 348.56 74.66 347.65 74.27 346.93 75.96 348.26 77.79 349.21 75.55"/><path class="cls-33" d="M346.21,104.63c-.1,5.84-11.06,32.28-15.29,42.28a7.31,7.31,0,0,1-9.25,4s-14.22-6.56-10.21-16.76c3.62-9.22,15.46-36.83,16.82-37.69C329.91,95.41,346.25,101.71,346.21,104.63Z"/><path class="cls-3" d="M346.21,104.63c0-.62-.73-1.4-1.9-2.22a84.6,84.6,0,0,1-3.68,11.09c-6.93,17-17.65,28.65-23.93,26.08-2.38-1-3.78-3.85-4.23-8-.38.94-.72,1.8-1,2.53-4,10.2,10.21,16.76,10.21,16.76a7.31,7.31,0,0,0,9.25-4C335.15,136.91,346.11,110.47,346.21,104.63Z"/><ellipse class="cls-34" cx="353.59" cy="257.72" rx="50.2" ry="53" transform="translate(-75.96 340.95) rotate(-47.05)"/><polygon class="cls-34" points="362.64 204.38 342.32 206.9 352.79 214.75 362.64 204.38"/><polygon class="cls-34" points="355.71 309.24 369 309.24 362.16 298.88 355.71 309.24"/><ellipse class="cls-35" cx="367.8" cy="256.78" rx="50.61" ry="53.52" transform="translate(-80.26 278.18) rotate(-37.66)"/><ellipse class="cls-34" cx="367.8" cy="256.78" rx="36.66" ry="38.77" transform="translate(-80.26 278.18) rotate(-37.66)"/><path class="cls-36" d="M331.66,264.81a35,35,0,0,1,32.87-22.27c18,0,33.62,12.84,38.16,30a37.32,37.32,0,0,0,2.52-15.73c-1.12-21-18.77-38-39.43-38s-36.51,17-35.39,38A40.15,40.15,0,0,0,331.66,264.81Z"/><ellipse class="cls-37" cx="364.18" cy="257.72" rx="28.09" ry="29.66" transform="translate(-72.59 348.69) rotate(-47.05)"/><path class="cls-3" d="M386.27,257.72a26.24,26.24,0,0,0-25.92-24.52,23,23,0,0,0-23.25,24.52A26.23,26.23,0,0,0,363,282.25,23,23,0,0,0,386.27,257.72Z"/><path class="cls-37" d="M406.44,256.78c-1.16-21.67-19.39-39.24-40.73-39.24s-37.7,17.57-36.55,39.24S348.55,296,369.89,296,407.59,278.46,406.44,256.78ZM369.78,294c-20.25,0-37.56-16.68-38.66-37.26s14.44-37.25,34.7-37.25,37.56,16.68,38.66,37.25S390,294,369.78,294Z"/><path class="cls-36" d="M366.57,257.72a4,4,0,0,0-4-3.77,3.54,3.54,0,0,0-3.58,3.77,4,4,0,0,0,4,3.77A3.54,3.54,0,0,0,366.57,257.72Z"/><path class="cls-34" d="M361.16,233.28a2.41,2.41,0,0,0-2.38-2.25,2.12,2.12,0,0,0-2.13,2.25,2.4,2.4,0,0,0,2.38,2.24A2.11,2.11,0,0,0,361.16,233.28Z"/><path class="cls-34" d="M371.85,283.14a2.4,2.4,0,0,0-2.37-2.24,2.1,2.1,0,0,0-2.13,2.24,2.4,2.4,0,0,0,2.37,2.25A2.11,2.11,0,0,0,371.85,283.14Z"/><path class="cls-34" d="M389.91,250.5a2.4,2.4,0,0,0-2.38-2.24,2.11,2.11,0,0,0-2.13,2.24,2.41,2.41,0,0,0,2.38,2.25A2.12,2.12,0,0,0,389.91,250.5Z"/><path class="cls-34" d="M342.12,264.33a2.41,2.41,0,0,0-2.37-2.25,2.11,2.11,0,0,0-2.13,2.25,2.41,2.41,0,0,0,2.37,2.25A2.11,2.11,0,0,0,342.12,264.33Z"/><path class="cls-34" d="M345.87,244.33a2.41,2.41,0,0,0-2.37-2.25,2.11,2.11,0,0,0-2.13,2.25,2.41,2.41,0,0,0,2.37,2.25A2.11,2.11,0,0,0,345.87,244.33Z"/><path class="cls-34" d="M378.51,236.69a2.41,2.41,0,0,0-2.37-2.25,2.11,2.11,0,0,0-2.13,2.25,2.41,2.41,0,0,0,2.37,2.25A2.11,2.11,0,0,0,378.51,236.69Z"/><path class="cls-34" d="M387.82,271.41a2.4,2.4,0,0,0-2.38-2.24,2.1,2.1,0,0,0-2.12,2.24,2.39,2.39,0,0,0,2.37,2.25A2.11,2.11,0,0,0,387.82,271.41Z"/><path class="cls-34" d="M354.62,279.61a2.4,2.4,0,0,0-2.37-2.25,2.11,2.11,0,0,0-2.13,2.25,2.4,2.4,0,0,0,2.37,2.24A2.1,2.1,0,0,0,354.62,279.61Z"/><path class="cls-18" d="M56.59,142.85c-4.66-2.87-4.71-5.09-3.88-7.34s2.22-3.65,6.84-.93,8,7,7.22,9.33S61.36,145.79,56.59,142.85Z"/><path class="cls-18" d="M53.82,152.61c-5-3.24-5-5.57-4.18-7.87s2.31-3.69,7.24-.6,8.59,7.72,7.77,10.14S58.92,155.94,53.82,152.61Z"/><path class="cls-18" d="M50,162.39c-4.76-3.21-4.77-5.63-3.87-8.06s2.34-3.92,7.06-.86,8.16,7.76,7.31,10.3S54.91,165.69,50,162.39Z"/><path class="cls-18" d="M64.93,137.14c3.83.35,4.45-.45,14.8,6.3a9.51,9.51,0,0,1,3.5,11.68l-7.33-3.2c-1.53,3.74.78,21.88-4.1,19.41-5.62-2.84-15.59-6.3-19.49-9.11C49.83,160.26,60.21,136.71,64.93,137.14Z"/><path class="cls-21" d="M81.2,139.18c4.57.07,8,7.19,7.68,15.58-.29,8.06,1.7,17.4-2.44,17.57s-13.62-9.11-13.65-17.39C72.76,146.31,76.56,139.11,81.2,139.18Z"/><path class="cls-38" d="M210.21,53.09c-.36-2.71-1.93-4.82-3.51-4.71s-2.56,2.38-2.21,5.08,1.93,4.81,3.51,4.71S210.57,55.79,210.21,53.09Z"/><path class="cls-25" d="M206.84,37.39l-9.46,4a1.6,1.6,0,0,0-.83,2.09l1.25,3.09a1.57,1.57,0,0,0,2,.88l9.46-4a1.61,1.61,0,0,0,.83-2.09l-1.25-3.09A1.57,1.57,0,0,0,206.84,37.39Z"/><path class="cls-38" d="M226.74,50c-.79-2.61-2.67-4.44-4.21-4.08s-2.15,2.77-1.36,5.38,2.68,4.45,4.21,4.09S227.53,52.61,226.74,50Z"/><path class="cls-25" d="M228.54,36l-8.65-.64a1.29,1.29,0,0,0-1.35,1.32l-.08,3a1.46,1.46,0,0,0,1.28,1.52l8.65.65a1.3,1.3,0,0,0,1.36-1.32l.07-3A1.47,1.47,0,0,0,228.54,36Z"/><path class="cls-23" d="M217.36,50.4c3.45,6,4.8,9.85,2.52,11.41-1.43,1-3.67.82-5.47.47l0,.12s5.66,2,8.18.58S222.53,57.24,217.36,50.4Z"/><path class="cls-39" d="M207.36,67.48,207,70c.26.13,6.6,3.1,15.33-.41l-.58-1.06A16.17,16.17,0,0,1,207.36,67.48Z"/><path class="cls-39" d="M219,75.64c0,.75-1.56,1.26-3.37,1.13s-3.25-.84-3.2-1.59,1.56-1.26,3.37-1.13S219.07,74.89,219,75.64Z"/><path class="cls-21" d="M350,148.1c-4.17,3-3.66,4.94-2.22,6.87s3.24,3.06,7.4.23,6.64-6.91,5.22-8.94S354.27,145.07,350,148.1Z"/><path class="cls-21" d="M344.65,139.65c-4.39,3.32-3.89,5.4-2.4,7.37s3.35,3.08,7.73-.09,7.07-7.63,5.6-9.71S349.16,136.24,344.65,139.65Z"/><path class="cls-21" d="M338.21,131.27c-4.19,3.28-3.59,5.44-2,7.52s3.44,3.28,7.62.15,6.6-7.63,5.07-9.81S342.49,127.91,338.21,131.27Z"/><path class="cls-21" d="M326.75,139.53c-4,1.94-10.26,13.85-6.6,21.05,3.52,6.91,17.49,5.35,14.16-1.88C330.85,151.17,330.79,137.56,326.75,139.53Z"/><path class="cls-21" d="M343.32,134.48c-1-.28-5.44,2-13.05,2.94-5.35.7-8.06,7.78-4.54,12.8,4.4.44,19.69-6.58,20.91-9.07C348,138.43,345.44,135.1,343.32,134.48Z"/><path class="cls-30" d="M101.91,97.15S97.5,109.45,90.84,105s3.22-13.62,3.22-13.62C83,88,75.64,103.34,81.33,110.67A17.43,17.43,0,0,0,82.54,112C74.41,130.39,60.7,151,45,172.33c-2.93-1.06-9-2.08-16.11,8.13-2.93,4.19-3.81,7.67-3.56,10.33.32,3.39,5.31,3.75,6.15.45a9.2,9.2,0,0,1,3-4.21c6.58-5.93,11.15,2.46,11.15,2.46l-2.18,9.74A2.35,2.35,0,0,0,47,201.74c9-6.05,10.52-18.2,4.74-25,3-7,19.44-44.23,35.67-61.3,6.1,2.74,13.7,1.64,17.29-6.53C109.72,97.56,101.91,97.15,101.91,97.15Z"/><path class="cls-40" d="M82.54,112c-8,17.94-21.24,38-36.5,58.87a11.71,11.71,0,0,1,1.63.45c15.69-21.36,29.4-41.94,37.54-60.29A14.28,14.28,0,0,1,84,109.7c-4.21-5.42-1.3-15.23,5-18.58-8.07,1.65-12.43,13.41-7.67,19.55A17.43,17.43,0,0,0,82.54,112Z"/><path class="cls-40" d="M103.91,97.76a5.48,5.48,0,0,0-2-.61s-2,5.57-5.34,7.86C100.14,104.85,102.75,100.26,103.91,97.76Z"/><path class="cls-40" d="M90.11,114.45l-1.36,1.48a12.82,12.82,0,0,0,10.11-.44A14,14,0,0,1,90.11,114.45Z"/><path class="cls-40" d="M46.14,198.26l2.19-9.73s-3.91-7.13-9.68-3.57c4.27-.45,7,4.53,7,4.53l-2.18,9.74A2.35,2.35,0,0,0,47,201.74c.31-.21.58-.44.87-.66A2.37,2.37,0,0,1,46.14,198.26Z"/><path class="cls-40" d="M28,189.83c-.26-2.67.62-6.15,3.55-10.33s5.58-6.4,8-7.6c-3,.63-6.63,2.82-10.64,8.56-2.93,4.19-3.81,7.67-3.56,10.33.27,2.85,3.81,3.54,5.45,1.75A3,3,0,0,1,28,189.83Z"/><path class="cls-21" d="M58,153.41c5,1.7,5.08,3.83,4.21,6.18s-2.32,4-7.28,2.44-8.62-4.89-7.8-7.33S52.84,151.67,58,153.41Z"/><path class="cls-21" d="M60.81,143.4c5.33,2,5.44,4.21,4.54,6.61s-2.42,4.08-7.7,2.23-9.25-5.48-8.41-8S55.33,141.36,60.81,143.4Z"/><path class="cls-21" d="M64.75,133.14c5.11,2,5.15,4.33,4.22,6.86s-2.45,4.31-7.52,2.44-8.79-5.61-7.91-8.24S59.5,131.07,64.75,133.14Z"/><path class="cls-21" d="M76.86,128.42c.91.52,2.46,5.47,7.19,11.84,3.33,4.47,0,11.62-6.26,12.65-3.49-2.95-9.25-19.4-8.27-22.11C70.59,127.84,74.88,127.3,76.86,128.42Z"/></g></g></g></svg>