<svg xmlns="http://www.w3.org/2000/svg" viewBox="0 0 2629.41 1288.6"><defs><style>.cls-1{fill:#ebf3fa;}.cls-2{fill:#f8fbff;}.cls-3{fill:#e1efff;}.cls-4{fill:#d9e9fc;}.cls-5{fill:#8cb7ea;}.cls-6{fill:#b4d5ef;}.cls-7{fill:#afd295;}.cls-8{fill:#82b378;}.cls-9{fill:#233862;}.cls-10{fill:#e8945b;}.cls-11{fill:#f99f46;}.cls-12{fill:#d86713;opacity:0.4;}.cls-13{fill:#c65447;}.cls-14{fill:#ffb27d;}.cls-15{fill:#b84c42;}.cls-16{fill:#aa3e39;}.cls-17{fill:#2c3a64;}.cls-18{fill:#c0783d;}.cls-19{fill:#2b478b;}.cls-20{fill:#466aa5;}.cls-21{fill:#fff;}</style></defs><g id="图层_2" data-name="图层 2"><g id="Layer_1" data-name="Layer 1"><path class="cls-1" d="M8.92,1287.18c.09.48.18.94.29,1.42l41.74-.14,647.24-2,427.08-1.3,13,0,30.06-.09,390.71-1.2,900.25-2.77h0l33-.09h0l22.92-.08h0l13.23,0,5.85,0s.87-1.44,2.45-4.23l.48-.83c.58-1,1.23-2.2,2-3.53,4.21-7.67,10.85-20.28,18.66-37q3-6.51,6.28-13.84,2.58-5.85,5.24-12.16c.6-1.4,1.19-2.82,1.79-4.27s1.24-3,1.86-4.49c3.27-8,6.61-16.56,9.93-25.57h0q4.92-13.29,9.75-27.94l.21-.64q2.67-8.21,5.28-16.76,3.82-12.57,7.37-25.91,3.38-12.74,6.45-26.11c3.61-15.77,6.82-32.18,9.46-49.15a637.33,637.33,0,0,0,7.79-107.94,547.29,547.29,0,0,0-12-107c-19.6-90.9-65.41-184.49-154.26-270.13-326.78-314.9-607.83-140.43-750.42-149.18-25.56-1.57-48-11.72-70.07-27.8-40.43-29.47-79.55-78.86-134.13-131.88-81.81-79.47-198.32-167.1-406-208-257-50.67-610-36.47-762.69,115.82-92.38,92.13-111.47,234.78,8.32,444.17q10.92,19.09,23.41,38.94Q382,642,389.83,657.13C403,682.57,410.81,705,414.1,725c7.91,48-10.25,82-42.79,110a265.87,265.87,0,0,1-31.38,22.86c-38,24-86.06,44.66-134,68.84-26.45,13.37-52.85,27.8-77.5,44.49-22.89,15.52-44.27,33-62.76,53.29a252.58,252.58,0,0,0-32.17,43.77c-.52.9-1,1.8-1.54,2.7A244,244,0,0,0,5.6,1143.24c-.27,1.38-.54,2.76-.78,4.15C-2.39,1186.73-1.88,1232.75,8.92,1287.18Z"/><path class="cls-2" d="M348.08,586.33,1791.46,831.77,1895,707.6,339.76,142.16C247.38,234.29,228.29,376.94,348.08,586.33Z"/><path class="cls-3" d="M9.2,1288.6l689-2.12,427.08-1.31,13,0,30.06-.09c274.61-152.38,358.3-312.16,358.3-312.16-9.83-2.46-712.6-147.29-1186.7-115-38,24-86.06,44.66-134,68.85-26.44,13.35-52.84,27.79-77.49,44.49C40.63,1030.72-24.94,1118.86,9.2,1288.6Z"/><path class="cls-4" d="M9.2,1288.6l2525.16-7.76s135.44-224.07,83-467.46c-31.1,21.13-66.36,36.43-88.75,19-28.27-22-109.22-86.2-170.53-134.9v0c-42.17-33.5-75-59.66-75-59.66s-34.44-33.13-57-23.85c-10.42,4.29-20.57,14.55-29.5,23.94a.38.38,0,0,0-.09.08c-10.34,10.86-19.06,20.51-24.74,18.39-5.14-1.93-43-40.58-86.9-83.52-46.73-45.67-100.41-96.21-129.1-112.6,0,0-26.67-27.34-55.64,4-14.84,16-37.66,57-63.15,106.31C1778.08,684.2,1705,842.07,1682.82,840c-31.8-3-81.27-73.68-111.31-80.75S1404.71,999.38,1346.39,1010s-169.63-79.51-259.75-53-235.91,174.94-371.1,148.44C607.36,1084.19,362.74,964.59,206,926.74,85.27,987.69-34.51,1071.23,9.2,1288.6Z"/><path class="cls-5" d="M5.61,1143.25l4.71-1.61c4.92-1.47,13-3.22,20.45-2.1,7.9,1.17,21.21,10.9,29.31,17.36-3.77-6.38-7.24-14.37-8.1-23.11-2.11-21.16,6.18-45.06,19.43-29.28,9.61,11.44,5.3,41.62,2.19,57.38,5.12,2,10.28,4.2,15.44,6.57,6.34-22.34,15.44-48.94,27.87-74.85,5.92-12.36,124.33,9.85,174.53,39.28,80,46.88,328.73-.34,406.47,12s226.91,70.15,371.8,31.28,622-63.61,761.53-88.35c122.84-21.77,565.42-149.69,798.1-167.42a637.29,637.29,0,0,1-7.81,107.94c-22.78,145.94-87.17,252.47-87.17,252.47l-1836.18,5.64-328-3.1L7.54,1280C-2.27,1226.77-2.07,1181.76,5.61,1143.25Z"/><path class="cls-6" d="M8,1282.29l362.16,1.09,328,3.1,427.09-1.31,13,0,30.06-.1,390.71-1.2,975.32-3s64.39-106.53,87.17-252.47c-185.34,16.05-552.49,50.85-991.52,106.19-630.84,79.52-959.61,132-1302.4,25.84-63.23-19.58-118-37.23-166-52.57q-23.4-7.49-44.68-14.22-21.07-6.64-40.25-12.53c-14.53-4.44-29.72-9.62-42.78-13.36-.92,1.53-1.21,2.1-1.87,3.27a243.55,243.55,0,0,0-26.4,72.26C-2.07,1181.76-1.84,1229.1,8,1282.29Z"/><path class="cls-7" d="M8,1282.29l690.22,4.19,427.08-1.31,13,0,30.06-.09,390.71-1.2,975.85-3.88s1.27-2.09,4.37-7.71c4.21-7.66,10.85-20.27,18.66-37-104.05-36.34-304.13-156.55-482-99.55-265.06,84.93-1315.3,144.68-1503.49,110.22S213.2,1168.78,145,1232.08C126.54,1249.23,22.51,1202.58,8,1282.29Z"/><path class="cls-8" d="M2537.3,1275.78l2-3.53c4.21-7.66,10.85-20.27,18.66-37q3-6.51,6.28-13.84c1.71-3.89,3.47-8,5.24-12.16q.9-2.12,1.79-4.27c.62-1.48,1.24-3,1.85-4.49-44.89-105.19-145.89-314.82-240.27-288.68C2239.78,937.55,2433.64,1163.48,2537.3,1275.78Z"/><path class="cls-8" d="M2598.26,1129.53q3.82-12.55,7.37-25.9c2.25-8.49,4.42-17.19,6.45-26.11-18.6-94.29-48.91-209.37-85.47-205.14C2483.25,877.37,2553,1035.89,2598.26,1129.53Z"/><path class="cls-8" d="M2245.57,1187.21c31.41,16.75,122.1,58.66,199.28,93.86h0l40.75-.12h0l28.25-.09c-65.82-61.28-180.95-150.76-282-149.76a19.94,19.94,0,0,0-19.59,16.53C2210.65,1157.68,2216.35,1171.62,2245.57,1187.21Z"/><path class="cls-2" d="M1836.9,570.53c14,4.51,33.45,6.92,35.87-11.86,3.53-27.39,82.16,25.62,122.8,37.1s17.66-35.34,18.55-48.59c.54-8.1,40.05,10.21,70.67,25.67-46.73-45.67-100.41-96.21-129.1-112.6,0,0-26.67-27.34-55.64,4C1885.21,480.26,1862.39,521.24,1836.9,570.53Z"/><path class="cls-2" d="M2196.52,637.9c.89-.8,8.46-7,22.27.08,14.72,7.55,34.15,11.68,43,9S2358,697.49,2358,697.49v0c-42.17-33.5-75-59.66-75-59.66s-34.44-33.13-57-23.85C2215.6,618.25,2205.45,628.51,2196.52,637.9Z"/><path class="cls-2" d="M890.28,118.07l752.29,248.2c-40.43-29.47-79.55-78.86-134.13-131.88Z"/><path class="cls-2" d="M913.5,200.87A33.08,33.08,0,1,1,880.42,234,33.07,33.07,0,0,1,913.5,200.87Z"/><path class="cls-9" d="M1640.32,271.37s-46.86-24.68-114-29.61a78.77,78.77,0,0,0-80.58,53.87q-1,3-1.87,6.16c-15.78,56.73-7.17,228.48,45.89,273.29S1640.32,601,1640.32,601Z"/><polygon class="cls-8" points="1557.99 195.02 1672.13 214.31 1663.42 253.54 1558.81 278.31 1557.99 195.02"/><path class="cls-10" d="M1970,442.13c-5.13-3.67-9.8,9.62-16.22,9.08-1.48-.13,6.43-7.9,8.33-10.62s1.47-4.21.1-5-19.57,9.14-23.28,13.17c-2.28,2.48-7.22,11.59-10.69,18.26,0-.05,0-.07,0-.07s-103.55,7.66-124.44,5.87c-15.16-1.19-22.61-108.34-23.79-108.12-19.75,3.25-58.12,11.33-81.81,27.41a7.28,7.28,0,0,1-2.86,1.43c9,33.15,22.54,72.08,42.15,108.31a68,68,0,0,0,65.06,35.57c36.14-2.8,89.24-12.12,134.46-40.87,0,0,23.4-11.9,34.3-21.5C1986.17,462,1975.17,445.81,1970,442.13Z"/><path class="cls-11" d="M1787.93,655s-7,87.7-13.7,173c-9.09,115.93-43.69,404.79-43.69,404.79s7.33,11.52-28.27,4c0,0-43.63-98.39-52.69-211.56-.14-1.86-.28-3.73-.43-5.59-8.43-115.22-21.54-357.83-21.54-357.83Z"/><path class="cls-12" d="M1788.55,647.12s-7.63,95.53-14.32,180.87l-124.65,197.24c-.14-1.86-.28-3.73-.43-5.59-8.43-115.22-21.54-357.83-21.54-357.83Z"/><path class="cls-11" d="M1781.21,651.93l-290.69,553.29s-27.06,12.14-30.58,1.6c0,0,25.79-253.5,71-310.36,25.52-32.14,55.5-128.56,56.9-162.28s9.42-105,9.42-105Z"/><path class="cls-9" d="M1539.93,1283.17s-42.19.61-54.41-11.36c-1.44-1.41-6.09-15.55-6.13-15.7-.38-1.15-2.52-6.33-11.23-9.24-5.72-1.92-10.49-1.86-16-4a150.2,150.2,0,0,1-15.68-7.63c-13.07-7.63-10.09-11.66-10.09-11.66s2.88-2.61,6.67-6.42c1-1,2.12-2.17,3.23-3.36,5.66-6,12-13.6,13.57-19a18.4,18.4,0,0,1,6.41-9.54,17.53,17.53,0,0,1,6-3.14s4.61,18.5,13.73,16.2c17.63-4.47,20.93-4,21.53-3.67l.14.1s14.41,27.94,18.43,37.92c7.14,17.76,16.31,24.47,22.06,30.3a16.1,16.1,0,0,1,3.25,4.78C1544.42,1274.47,1542.21,1281.91,1539.93,1283.17Z"/><path class="cls-13" d="M1539.93,1283.17s-42.19.61-54.41-11.36c-1.44-1.41-6.09-15.55-6.13-15.7-.38-1.15-2.52-6.33-11.23-9.24-5.72-1.92-10.49-1.86-16-4a150.2,150.2,0,0,1-15.68-7.63c-13.07-7.63-10.09-11.66-10.09-11.66s2.88-2.61,6.67-6.42c1-1,2.12-2.17,3.23-3.36,1.38,5.36,5.19,14.93,15.28,18.85,14.4,5.59,29.87,15.19,34.4,22.92s7.47,14.67,16.27,17.6,31.73,3.74,33.33,2.94c1.28-.64,2.55-6.34,5.84-8.38C1544.42,1274.47,1542.21,1281.91,1539.93,1283.17Z"/><path class="cls-9" d="M1697.16,1283.27h17.45c5.84-.92,10.16-2.61,16.15-3.39,9.1-1.2,13.29,2.53,14.12,3.39a1.62,1.62,0,0,1,.16.18h74.11c1.86-2.67.07-8.83-1.68-13.37a10.56,10.56,0,0,0-6.94-6.34c-7.86-2.28-23.35-4.3-37.54-17.15-8-7.21-38.54-26.52-38.54-26.52l-.16,0c-.67,0-3.87,1-17.77,12.73-7.18,6-19.43-8.56-19.43-8.56a17.44,17.44,0,0,0-4,5.45,18.46,18.46,0,0,0-1.59,11.38c1.11,6.67-2.46,19.08-5.31,27.47-1.73,5.09-3.18,8.69-3.18,8.69S1682.16,1281.39,1697.16,1283.27Z"/><path class="cls-13" d="M1697.2,1283.52h17.37c5.84-.92,10.2-2.86,16.19-3.64,9.1-1.2,13.29,2.53,14.12,3.39a1.62,1.62,0,0,1,.16.18h74.11c1.86-2.67.07-8.83-1.68-13.37-2.25-2-2.89,8.69-4.13,10.39s-60.45.63-63.87-1.86-13.68-6.84-28-3.42c-12.45,3-30.79-4.65-35.33-6.68-1.73,5.09-3.18,8.69-3.18,8.69S1682.19,1281.64,1697.2,1283.52Z"/><path class="cls-14" d="M1629.06,261.48s69.43,34.17,109.56,21.5a96.27,96.27,0,0,0-27.1-22.09c1-5.84,1.77-11.17,2.39-15.93a249.59,249.59,0,0,0,2.31-27l-42.55-34.3-9.54-7.7a121,121,0,0,1-1.31,22.63c-.08.55-.16,1.1-.25,1.64C1655.66,241.52,1629.06,261.48,1629.06,261.48Z"/><path class="cls-15" d="M1589.44,625c-.21,4.42,8.9,9.28,12.86,11,17.55,7.88,34.4,14.33,51.68,18.92a227.84,227.84,0,0,0,37.2,6.74c37.18,3.82,81.11-4.56,96.19-4.35a6.51,6.51,0,0,0,4.21-1.61c1-.81,1.81-46.21,1-103.49,0-2.2,0-4.62-.2-6.83v-.8c-.2-22.31-1-45.82-2-69.12-2.2-51.45-6.22-101.08-13.06-128.62-8-32.34-26.52-53.64-43.4-69.31l-12-11.94a3.23,3.23,0,0,0-2.87-.87c-13.42,2.47-28.11,2.27-42.2-4.68-15.88-7.83-33.16-16.28-36-14.26-33,24.62-49.35,97.36-49,180.06,0,2.61,0,5.24.07,7.87.14,8.53.45,17.18.94,25.86,3.59,61-.09,113.91-2.19,144.67C1590.05,613.12,1589.57,620.13,1589.44,625Z"/><path class="cls-16" d="M1589.44,625c-.21,4.42,8.9,9.28,12.86,11,17.55,7.88,34.4,14.33,51.68,18.92,47.94-154.9-9.47-305.05-9.47-305.05l-52.6,83.84c.14,8.53.45,17.18.94,25.86,3.59,61-.09,113.91-2.19,144.67C1590.05,613.12,1589.57,620.13,1589.44,625Z"/><path class="cls-15" d="M1663.19,374c-17.2-10.19-51.71-28.67-80.22-31.59a9.27,9.27,0,0,1-7.55-12.94c9-20.59,34.46-63.68,65.46-83.7,2.91-1.88,5.1-.25,8.12,1.45,11.45,6.42,36.07,25.4,37.59,47.78,1.34,19.91-5.48,54.44-9.61,73A9.28,9.28,0,0,1,1663.19,374Z"/><path class="cls-10" d="M1662.23,199.61s.11.22.34.63c2.69,4.81,21,35.83,51.34,44.72a249.59,249.59,0,0,0,2.31-27l-42.55-34.3a120,120,0,0,0-10.85,14.93Z"/><path class="cls-14" d="M1728.5,217s-66.28,11-72.5-30.37-19-67.83,23.08-76.61,52.68,5.77,58.11,19.08S1745.58,213.08,1728.5,217Z"/><path class="cls-17" d="M1747.48,105.13C1733.72,98.79,1666.72,67,1638,96a82.25,82.25,0,0,1-.44-9.72c-2.09,3.78-3,9.33-3.43,13.29-2.56-3.08-7.32-3.6-7.32-3.6a10.26,10.26,0,0,1,5.43,7.27c-28.46,42.33,14.76,85.4,20.7,92.11,6.14,6.94,9.64,4.89,9.64,4.89s10.82-14.65,5.56-24.27c0,0-8.8-8.89-3.73-14.49s8,2.94,12,2.67,11.2-12,11.74-22.67,39,5.61,54.49.54S1771.66,116.28,1747.48,105.13Z"/><path class="cls-9" d="M1590.46,471l-2-12.64c30.72-5,55.58-19.75,73.88-43.88,13.82-18.21,23.54-42.07,26.69-65.46,6.09-45.32-5.83-71.11-36.46-78.86-27.44-6.95-59.15,14.49-59.46,14.71l-7.26-10.54c1.49-1,36.75-25,69.86-16.58,25.81,6.53,54.75,28,46,93-2,15-8.49,44.22-29.18,71.49C1652.13,449.08,1624.53,465.49,1590.46,471Z"/><ellipse class="cls-7" cx="1548.75" cy="236.77" rx="40.69" ry="42.87"/><path class="cls-8" d="M1519.84,237.89a37.29,37.29,0,0,1,37.29-37.29c.91,0,1.81,0,2.7.1a37.67,37.67,0,0,0-9.68-1.27,37.28,37.28,0,0,0-2.69,74.47A37.31,37.31,0,0,1,1519.84,237.89Z"/><rect class="cls-18" x="1952.57" y="421.85" width="10.71" height="739.05"/><rect class="cls-9" x="1947.96" y="413.88" width="19.93" height="95.17" rx="6.84"/><path class="cls-9" d="M1968.45,1165.57h-21a5.3,5.3,0,0,1-5.31-5.3h0a5.3,5.3,0,0,1,5.31-5.31h21a5.31,5.31,0,0,1,5.31,5.31h0A5.3,5.3,0,0,1,1968.45,1165.57Z"/><path class="cls-18" d="M1958,1186.1h0a3.68,3.68,0,0,1-3.67-3.33l-1.72-17.2h10.71l-1.65,17.19A3.69,3.69,0,0,1,1958,1186.1Z"/><rect class="cls-18" x="1540.95" y="446.97" width="10.71" height="739.05" transform="translate(827.3 -777.48) rotate(37.89)"/><path class="cls-9" d="M1722.14,595.59l-4.93-3.84a6.84,6.84,0,0,1-1.19-9.6l50-64.31a6.84,6.84,0,0,1,9.6-1.2l4.93,3.83a6.84,6.84,0,0,1,1.19,9.6l-50,64.32A6.84,6.84,0,0,1,1722.14,595.59Z"/><path class="cls-9" d="M1324.83,1118.29l-16.62-12.93a5.3,5.3,0,0,1-.93-7.45h0a5.3,5.3,0,0,1,7.45-.93l16.62,12.93a5.31,5.31,0,0,1,.93,7.45h0A5.31,5.31,0,0,1,1324.83,1118.29Z"/><path class="cls-18" d="M1303.94,1128h0a3.7,3.7,0,0,1-.86-4.88l9.21-14.62,8.45,6.57-11.85,12.55A3.69,3.69,0,0,1,1303.94,1128Z"/><path class="cls-14" d="M1768.06,558c-1.19-4.65-14.47-2.89-22.77-3.78a3.85,3.85,0,0,1-2.64-6.14l4.08-5.41c-6.09-1.23-13.18-2.23-16.07-1.86-3.34.42-13,4.21-19.93,7.07,0,0,0-.08,0-.08s-84.13-60.84-99-75.67c-10.83-10.68,52.5-97.43,51.46-98-17.21-10.23-51.76-28.76-80.23-31.73a7.49,7.49,0,0,1-3.12-.74c-14.43,31.18-29.19,69.65-37.53,110a68,68,0,0,0,26.85,69.11c29.44,21.14,76.06,48.22,129.17,55.36,0,0,28.54,11,43.06,10.67C1761.26,586.33,1769.62,564.13,1768.06,558Z"/><path class="cls-10" d="M1943.51,445.22s13.44-11,18.69,1.77c3.67,8.93-1.51,15.78-5,19.1a3.65,3.65,0,0,1-5.87-1.08c-.73-1.62-1.09-4-.27-7.31l-12.29,26.57Z"/><path class="cls-10" d="M1967.89,441.51s-8.07-.37-8.86,13.31-2.37,33.18,9.22,22.74S1967.89,441.51,1967.89,441.51Z"/><rect class="cls-18" x="1198.38" y="629.81" width="10.71" height="631.98" transform="translate(636.62 -476.13) rotate(30.1)"/><path class="cls-11" d="M973.92,704.75c1.44,3.5,7.7,6.6,16.72,8.84,20.21,5,54.29,5.69,79.15-3.52,26.65-9.86,46-150.73,54.2-222.93,2.86-25.18,4.38-42,4.38-42s-15.31-24-74.56-16-65.24,28-70.56,63.91S969.27,693.43,973.92,704.75Z"/><polygon class="cls-16" points="1028.12 381.84 1142.25 401.13 1133.55 440.36 1028.93 465.13 1028.12 381.84"/><ellipse class="cls-15" cx="1018.87" cy="423.58" rx="40.69" ry="42.87"/><path class="cls-16" d="M990,424.7a37.29,37.29,0,0,1,37.29-37.29c.91,0,1.8,0,2.69.11a37.29,37.29,0,1,0-12.36,73.2A37.3,37.3,0,0,1,990,424.7Z"/><path class="cls-10" d="M1356.48,707.73c-.51-6.83-10.42-12.69-16.7-14.47-5-1.43-11.57-8.45-14-11.19-22.47-28.45-55.85-86.62-64.19-96.68-3-3.67-12.32-22.44-24.36-46.62-8.1-16.25-17.43-34.94-26.94-53.12-14.49,5.26-32,12.46-47.08,21.12,9.08,14.51,21.16,33.89,31.82,51.3,9.81,16,18.4,30.36,22.33,37.63,12,22.35,94.24,97.66,94.24,97.66l4.57,4.6a20.55,20.55,0,0,1,2.42,2.94c2.57,3.8,7.33,11.48,14.68,18.16,4.46,4.05,7.42,6.66,15.72,5.61C1359.47,723.34,1357,714.55,1356.48,707.73Z"/><path class="cls-9" d="M1207.46,468.51s41,81.88,46.93,94.74c0,0-21.72,43.14-35.84,42.87S1207.46,468.51,1207.46,468.51Z"/><path class="cls-9" d="M1105.81,285.38c-.63-2.23-8.73-27.35-47.91-19,0,0,19.62-2.47,25,5.09,0,0-15.55-7.12-25.29-1.17s-11.33,26-9.88,32.12,12.21,24.27,19.33,24.27a21.15,21.15,0,0,0,8.12-2,94.76,94.76,0,0,0-2.89,10.59c-7.56,35.58,16.1,62.63,28.34,55.95,7.85-4.29,13.79,9.45,13.79,9.45l65.12-86.33S1134.16,259.8,1105.81,285.38Z"/><path class="cls-14" d="M1208.13,711.88c-29.55-94.46,2.83-115-.25-162.26s-39.67-98.1-39.67-98.1-1.87-.19-5-.47c-2.45-1.3-3.11-11.57-3.08-22.42,0-13,1-26.83,1-26.83l-43.89-8.69-2.61-.51c.11,30.55-7.94,50.61-13.76,55.28-5.49.62-28.87,3.57-43.28,9.59-5.43,2.27-9.57,5-11,8.15-12,26.5-24.09,93.39-32.55,141.1-4.71,26.59-15.1,60.2-7.37,67.34l45.51-17.25c1.7-8.09,4.63-24.85,9.51-43,.74-2.74-.22-6.06.54-8.87,8.63,23.38,13,34.2,12.79,44.31-.34,14.37-10.09,27.3-30.47,73C1033.28,747.52,1238.3,808.36,1208.13,711.88Z"/><path class="cls-10" d="M1161.13,401.8s-1,13.82-1,26.83c-24.56-.69-37.54-23.1-42.86-35.52Z"/><path class="cls-9" d="M1112.71,388.34s-12.88-20.34-16-37.73c-2.21-12.42,4.11-58.44,50.36-51.81a62.8,62.8,0,0,1,26.06,9.85c10,6.78,24.53,21.42,8.32,61.58l-4.2,13.57Z"/><path class="cls-14" d="M1169.33,414.13s-58.11,1-58.15-35.24-7.57-60.46,29.54-62.6S1185,328,1188,340,1184.45,412.94,1169.33,414.13Z"/><path class="cls-15" d="M1250.42,1257.73l-18.65,4.59a574.65,574.65,0,0,1-53.7-94.94c-15.44-34.72-28.89-74.35-31.59-111.18-1.23-16.67-.26-32.77,3.72-47.59,0,0-5.22-35-12.35-81.8-7.91-52-18.17-118.44-26.22-167.31l4.86-1.44,104.06-30.9s20.36,79.73,11,204.68c-1.91,25.63-5.07,53.16-9.91,82.31-8.27,49.8-4.86,99.87,2,141.55C1233.5,1215.3,1250.42,1257.73,1250.42,1257.73Z"/><path class="cls-16" d="M1231.59,931.84,1150,1082.42c-2.25-13.77-9.45-38.33.17-73.81,0,0-5.22-35-12.35-81.8-7.91-52-18.17-118.44-26.22-167.31l4.86-1.44,104.06-30.9S1240.91,806.89,1231.59,931.84Z"/><path class="cls-15" d="M1140.27,1017c-3.7,6.93-40.26,50.89-77,99.56-3.15,4.17-6.41,8.66-9.75,13.37-21.65,30.49-46.57,70.24-61.46,89.59-13.54,17.59-25.7-4.44-18.87-20.15,10.78-24.8,19.91-68.14,30.34-100a202.86,202.86,0,0,1,7.47-19.93c11.23-25.12,33.12-52.66,59.74-79.9,4.61-4.73-38.61-117.54-35.73-204.53,1.13-34.48,5.93-64.8,16.92-83.27l109.33,5.41S1176.23,949.45,1140.27,1017Z"/><path class="cls-9" d="M1186.26,319.91c-9-10.87-15.74-8.51-19.55-5.25-31.16-17.28-70.34,1.41-70.34,1.41a448.37,448.37,0,0,0-4.52,47.82s10.59,6.54,35,.26c7.45-1.92,14.11-7.2,19.77-13.62A135.5,135.5,0,0,1,1123.3,379c29.17-13.48,40.88-54.05,42-58.34,3.54,3.19,10.54,10.11,12.67,16.89,2.89,9.22,4.2,28.2,9.73,27.55C1187.75,365.1,1199.74,336.23,1186.26,319.91Z"/><path class="cls-19" d="M1030.83,755.26a25.89,25.89,0,0,0,.68,8.74c2.33,7.32,10.32,10.65,29.63,8.66,11.8-1.23,17.06-21,19.41-37.89,7.09,24.14,17,37.7,29.85,40.54,18.72,4.17,113.17,15.65,119.35-29.25,6.8-49.38-13.56-136.81-14.68-184a232.87,232.87,0,0,0,3.43-43.68c-.79-33.59-10.65-52.41-18.23-60-2.15-1.65-4.29-2.68-12.91-4.15-4.4-.75-10.51-1.62-19.15-2.76,0,0-3.72-.48-3.64-.35,1.6,2.86,18.79,28.17,17.12,36.5-1.75,8.71-67.84,7.46-73.07,2.66s-18.89-40.95-18.89-40.95-26.86,2.94-40,12.49a1.11,1.11,0,0,0,.13.17,11.16,11.16,0,0,0-3.45,3.64c-14,26.69-28,94.06-37.87,142.11,23.87,13.15,44.72,9.24,51.19,7.5C1051.27,670.63,1032.09,730.05,1030.83,755.26Z"/><path class="cls-11" d="M1168.21,451.52l.12.2c2.57,4.07,42.88,68.49,46.74,110.38a232.87,232.87,0,0,0,3.43-43.68c-5.19-15.83-28.41-51.25-40.52-65.58C1177.11,451.82,1168.21,451.52,1168.21,451.52Z"/><path class="cls-14" d="M1178.08,1167.38a573.37,573.37,0,0,0,53.69,94.94l18.65-4.59s-16.92-42.43-26.74-102C1217.84,1160,1205.19,1165.61,1178.08,1167.38Z"/><path class="cls-9" d="M1217,1283.39h12.78c4.28-.67,7.44-1.91,11.82-2.48,6.67-.88,9.74,1.86,10.35,2.48l.12.13h54.26c1.37-2,.06-6.46-1.22-9.79a7.71,7.71,0,0,0-5.08-4.64c-5.76-1.67-17.11-3.15-27.5-12.56-5.84-5.28-28.22-19.42-28.22-19.42l-.12,0c-.49,0-2.83.73-13,9.33-5.26,4.43-14.23-6.27-14.23-6.27a12.76,12.76,0,0,0-2.94,4,13.5,13.5,0,0,0-1.17,8.33c.81,4.89-1.8,14-3.89,20.13-1.26,3.72-2.33,6.36-2.33,6.36S1206,1282,1217,1283.39Z"/><path class="cls-20" d="M1217,1283.39h12.78c4.28-.67,7.44-1.91,11.82-2.48,6.67-.88,9.74,1.86,10.35,2.48l.12.13h54.26c1.37-2,.06-6.46-1.22-9.79-1.65-1.46-2.12,6.37-3,7.61s-44.27.46-46.77-1.36-10-5-20.49-2.51c-9.11,2.18-22.54-3.4-25.87-4.88-1.26,3.72-2.33,6.36-2.33,6.36S1206,1282,1217,1283.39Z"/><path class="cls-9" d="M1030.83,755.26c13-4.33,29.62-15.86,49.61-41.69,52.92-68.4,4.5-148.79-2-150.29s-18.71,52-18.71,52c-1.26,11.59-4.23,23.81-6.62,35.7-.24,1.19-.56,2.29-.74,3.47-2.16,13.81-.76,27-3.85,39.81-.07.26-5.66,1.15-5.72,1.41C1036.71,720.88,1031.46,742.61,1030.83,755.26Z"/><path class="cls-21" d="M1152.64,392.75s1.1,4.46,12.21,3.64c0,0,9.33-.69,9-5.6C1173.83,390.79,1164.74,387.41,1152.64,392.75Z"/><path class="cls-14" d="M1053.53,1129.89c-21.65,30.49-46.57,70.24-61.46,89.59-13.54,17.59-25.7-4.44-18.87-20.15,10.78-24.8,19.91-68.14,30.34-100C1010.55,1110,1024.86,1123.71,1053.53,1129.89Z"/><path class="cls-9" d="M1021.05,1283.5s-31.84-4-39.78-14.28c-.93-1.21-2.95-12.35-3-12.47-.16-.9-1.23-5-7.48-8.14-4.11-2-7.71-2.5-11.62-4.71a111.9,111.9,0,0,1-11-7.39c-9-7.12-6.37-9.84-6.37-9.84s2.44-1.67,5.69-4.14c.88-.67,1.83-1.41,2.79-2.19,4.9-3.93,10.44-9,12.22-12.89a14.06,14.06,0,0,1,5.83-6.51,13.21,13.21,0,0,1,4.85-1.73s1.52,14.41,8.63,13.64c13.75-1.51,16.18-.77,16.61-.5l.09.09s7.92,22.56,9.9,30.49c3.5,14.13,9.7,20.15,13.41,25.15a12,12,0,0,1,1.95,3.94C1025.35,1277.42,1022.9,1282.8,1021.05,1283.5Z"/><path class="cls-20" d="M1021.05,1283.5s-31.84-4-39.78-14.28c-.93-1.21-2.95-12.35-3-12.47-.16-.9-1.23-5-7.48-8.14-4.11-2-7.71-2.5-11.62-4.71a111.9,111.9,0,0,1-11-7.39c-9-7.12-6.37-9.84-6.37-9.84s2.44-1.67,5.69-4.14c.88-.67,1.83-1.41,2.79-2.19.47,4.19,2.33,11.79,9.52,15.8,10.26,5.73,20.9,14.59,23.5,20.89s4.08,11.83,10.4,15,23.51,6.14,24.8,5.71c1-.35,2.58-4.5,5.27-5.69C1025.35,1277.42,1022.9,1282.8,1021.05,1283.5Z"/><path class="cls-11" d="M1070.35,452.59,1051,459.9c14,14.14,37.47,42.82,47.42,84.41,14.64,61.24-40.35,81.11-40.35,81.11l-4.83,24.74-.13.83s68.6-16.48,64.61-93.37C1115,504.3,1086.31,468.29,1070.35,452.59Z"/><path class="cls-9" d="M1321.17,749.42l-5.4-3.13a6.84,6.84,0,0,1-2.49-9.35l40.86-70.5a6.85,6.85,0,0,1,9.35-2.49l5.41,3.14a6.83,6.83,0,0,1,2.48,9.34l-40.86,70.51A6.84,6.84,0,0,1,1321.17,749.42Z"/><path class="cls-9" d="M1052,1228.52,1033.82,1218a5.32,5.32,0,0,1-1.93-7.26h0a5.31,5.31,0,0,1,7.26-1.93l18.21,10.56a5.3,5.3,0,0,1,1.94,7.25h0A5.32,5.32,0,0,1,1052,1228.52Z"/><path class="cls-18" d="M1032.67,1241h0a3.7,3.7,0,0,1-1.51-4.72l7.14-15.74,9.26,5.37-10,14A3.69,3.69,0,0,1,1032.67,1241Z"/><rect class="cls-18" x="923.16" y="592.07" width="10.71" height="631.98" transform="translate(1125.07 -375.72) rotate(54.34)"/><path class="cls-9" d="M1116.24,777.23l-3.64-5.07a6.85,6.85,0,0,1,1.57-9.55l66.21-47.5a6.85,6.85,0,0,1,9.55,1.57l3.64,5.07a6.85,6.85,0,0,1-1.57,9.55l-66.21,47.5A6.85,6.85,0,0,1,1116.24,777.23Z"/><path class="cls-9" d="M674.1,1103.53l-12.27-17.1a5.31,5.31,0,0,1,1.22-7.41h0a5.3,5.3,0,0,1,7.41,1.22l12.27,17.11a5.29,5.29,0,0,1-1.22,7.4h0A5.3,5.3,0,0,1,674.1,1103.53Z"/><path class="cls-18" d="M651.31,1107h0a3.7,3.7,0,0,1,.56-4.92l13-11.42,6.24,8.7L656.17,1108A3.7,3.7,0,0,1,651.31,1107Z"/><path class="cls-14" d="M1030.57,636.31l-23.92,37.75c41.34,28.54,88.27,44.17,118.67,63.94,2.94,2.14,11.76,6.34,13.65,11.22,2.35,6.09,7.27,13.89,14.11,13.76s17.14-4.9,18.48-11.75c.59-3-2.09-1.88-8.1-7.75-5-4.88-7.06-8-7.33-11-2.34-1.8-10.89-6.11-10.89-6.11-5.31-3.12-8.75-5.22-8.75-5.22h0S1057.43,659.61,1030.57,636.31Z"/><path class="cls-10" d="M1343.77,707.08c.2-1.79.47-3.66.83-5.37,1.23-5.71-9.32-10.78-9.32-10.78l-6,8.5s9.71,5.85,9.52,10.81a4.5,4.5,0,0,0,1,3.41c-2.09,5-2.82,10.57,3.56,11.12,8.67.74,12-20.66,12-20.66S1347.77,703.64,1343.77,707.08Z"/><path class="cls-14" d="M1052.37,654.46a183.53,183.53,0,0,0,7.36-39.17S1047.67,642,1052.37,654.46Z"/></g></g></svg>