<svg xmlns="http://www.w3.org/2000/svg" xmlns:xlink="http://www.w3.org/1999/xlink" viewBox="0 0 433.46 313.89"><defs><style>.cls-1{fill:none;}.cls-2{isolation:isolate;}.cls-3{fill:#ccc3bc;}.cls-4{fill:#f2e2e5;}.cls-5{fill:#e0d3d5;}.cls-6{fill:#ccbec1;}.cls-7{fill:#e8e2dd;}.cls-8{fill:#0a6c8e;}.cls-42,.cls-9{fill:#eee6de;}.cls-10,.cls-16{fill:#efd5bf;}.cls-11{opacity:0.58;}.cls-12{fill:#e8d3c1;}.cls-12,.cls-16,.cls-42,.cls-43{mix-blend-mode:multiply;}.cls-13{fill:#9e6718;}.cls-14{fill:#ffd773;}.cls-15{fill:#87510a;}.cls-17,.cls-35{fill:#fff;}.cls-17{opacity:0.46;}.cls-17,.cls-22,.cls-35,.cls-47,.cls-48,.cls-49{mix-blend-mode:overlay;}.cls-18{fill:#ee6d4a;}.cls-19{fill:#007f7c;}.cls-20{fill:#00aaac;}.cls-21{fill:#4cede5;}.cls-22{fill:#00c1bc;}.cls-23{fill:#167ba8;}.cls-24{fill:#3989b4;}.cls-25{fill:#0a759b;}.cls-26{fill:#3c9cc6;}.cls-27{fill:#b6e2ff;}.cls-28{fill:#003e60;}.cls-29{fill:#e0512f;}.cls-30{fill:#f48369;}.cls-31{fill:#f9a0a0;}.cls-32{fill:#cc3a1d;}.cls-33{fill:#ffbc00;}.cls-34{fill:#f7a500;}.cls-35{opacity:0.37;}.cls-36{fill:#cc8200;}.cls-37{fill:#6d3e06;}.cls-38{fill:#eadbce;}.cls-39{fill:#e5d1c3;}.cls-40{fill:#d6b8a1;}.cls-41{fill:#dbc2ad;}.cls-44{fill:#c4c4c3;}.cls-45{fill:url(#radial-gradient);}.cls-46{clip-path:url(#clip-path);}.cls-47,.cls-48{opacity:0.5;}.cls-47{fill:url(#radial-gradient-2);}.cls-48{fill:url(#radial-gradient-3);}.cls-49{fill:#e9f8ff;opacity:0.4;}</style><radialGradient id="radial-gradient" cx="314.23" cy="225.95" r="0.12" gradientUnits="userSpaceOnUse"><stop offset="0" stop-color="#fff"/><stop offset="0.21" stop-color="#e9e9f3"/><stop offset="1" stop-color="#9997c6"/></radialGradient><clipPath id="clip-path"><path class="cls-1" d="M351.37,164.15A53.25,53.25,0,1,1,277,152.53,53.25,53.25,0,0,1,351.37,164.15Z"/></clipPath><radialGradient id="radial-gradient-2" cx="143.93" cy="153.46" r="45.83" gradientTransform="matrix(0.81, -0.59, 0.59, 0.81, -11.4, 142.98)" gradientUnits="userSpaceOnUse"><stop offset="0" stop-color="#fff"/><stop offset="0.14" stop-color="#fefefe" stop-opacity="0.99"/><stop offset="0.26" stop-color="#fcfcfb" stop-opacity="0.94"/><stop offset="0.39" stop-color="#f7f7f7" stop-opacity="0.87"/><stop offset="0.51" stop-color="#f1f1f1" stop-opacity="0.76"/><stop offset="0.63" stop-color="#e9e9e9" stop-opacity="0.63"/><stop offset="0.75" stop-color="#dfdfdf" stop-opacity="0.46"/><stop offset="0.86" stop-color="#d4d4d3" stop-opacity="0.27"/><stop offset="0.98" stop-color="#c7c7c6" stop-opacity="0.04"/><stop offset="1" stop-color="#c4c4c3" stop-opacity="0"/></radialGradient><radialGradient id="radial-gradient-3" cx="146.45" cy="159.3" r="33.17" gradientTransform="matrix(0.81, -0.59, 0.59, 0.81, -11.4, 142.98)" gradientUnits="userSpaceOnUse"><stop offset="0" stop-color="#fff"/><stop offset="0.24" stop-color="#f2f2f1" stop-opacity="0.77"/><stop offset="0.8" stop-color="#d0d0cf" stop-opacity="0.2"/><stop offset="1" stop-color="#c4c4c3" stop-opacity="0"/></radialGradient></defs><g class="cls-2"><g id="图层_2" data-name="图层 2"><g id="OBJECTS"><path class="cls-3" d="M339.5,69.23l-.71-.8c1.77-1.55,2.87-2.37,2.92-2.4l.63.86S341.23,67.72,339.5,69.23Z"/><path class="cls-3" d="M325.17,226.53l0-1.07c2.51-.09,5-.19,7.36-.31l.06,1.06Q329,226.39,325.17,226.53Zm11.6-.56-.06-1.07c2.47-.15,4.94-.34,7.34-.54l.09,1.06C341.73,225.63,339.25,225.81,336.77,226Zm11.58-.93-.11-1.07c2.49-.24,4.95-.52,7.32-.82l.13,1.06C353.32,224.51,350.85,224.79,348.35,225Zm11.53-1.39-.15-1.05c2.5-.36,4.94-.75,7.27-1.16l.18,1.05C364.84,222.9,362.39,223.29,359.88,223.65Zm11.46-2-.21-1c2.45-.49,4.87-1,7.17-1.59l.26,1C376.23,220.67,373.8,221.21,371.34,221.7ZM382.65,219l-.28-1c2.43-.67,4.79-1.39,7-2.15l.34,1C387.49,217.64,385.11,218.36,382.65,219Zm11.06-3.6-.38-1c2.36-.9,4.62-1.88,6.73-2.89l.46,1C398.39,213.54,396.1,214.52,393.71,215.44Zm10.58-4.88-.51-.93a62,62,0,0,0,6.17-3.89l.63.86A60.86,60.86,0,0,1,404.29,210.56Zm9.63-6.58-.69-.81a42.94,42.94,0,0,0,5.12-5.16l.82.68A43.64,43.64,0,0,1,413.92,204Zm7.8-8.71-.89-.59a35.71,35.71,0,0,0,3.36-6.42l1,.39A36.29,36.29,0,0,1,421.72,195.27Zm4.81-10.67-1-.28a40.09,40.09,0,0,0,1.23-7.16l1.06.09A41.32,41.32,0,0,1,426.53,184.6Zm.35-11.61c0-.92-.05-1.88-.1-2.85-.1-1.51-.26-3-.48-4.42l1.06-.16c.22,1.45.38,3,.48,4.51.06,1,.09,2,.1,2.91Zm-1.41-11.35a36.58,36.58,0,0,0-2.48-6.82l1-.47a38.55,38.55,0,0,1,2.54,7ZM421,151.2a31.7,31.7,0,0,0-4.59-5.6l.75-.77a33.85,33.85,0,0,1,4.74,5.79Zm-7.74-8.3a36.2,36.2,0,0,0-6.21-3.75l.46-1a37.37,37.37,0,0,1,6.4,3.86Zm-10.05-5.34a48.23,48.23,0,0,0-7-1.94l.21-1.05a51.66,51.66,0,0,1,7.18,2ZM352,137.14c-.63,0-1.26,0-1.87,0l0-1.06a73.09,73.09,0,0,0,7.33-.19l.07,1.07C355.63,137.07,353.76,137.14,352,137.14Zm-6.12-.29a52.16,52.16,0,0,1-7.35-1.23l.26-1a51.59,51.59,0,0,0,7.19,1.2Zm15.9-.35-.14-1.06c1.24-.15,2.52-.34,3.79-.56s2.36-.38,3.51-.54l.14,1.06c-1.14.16-2.29.34-3.47.54S363,136.34,361.74,136.5ZM392,134.94a70.77,70.77,0,0,0-7.31-.53l0-1.07a69.9,69.9,0,0,1,7.41.55Zm-18.82-.05-.11-1.06c2.53-.26,5-.42,7.41-.48l0,1.06C378.17,134.48,375.71,134.64,373.21,134.89Zm-38.81-.48a35.4,35.4,0,0,1-6.76-3.2l.56-.9a34.48,34.48,0,0,0,6.56,3.09Zm-10.25-5.69a25.65,25.65,0,0,1-5-5.58l.89-.58a24.26,24.26,0,0,0,4.82,5.34Zm-7.06-9.37a24.07,24.07,0,0,1-1.8-7.29l1.06-.1a23.07,23.07,0,0,0,1.72,7Zm-.76-11.51-1.06-.08a30.19,30.19,0,0,1,1.1-6c.12-.44.25-.88.39-1.31l1,.32c-.14.42-.26.85-.39,1.28A29.51,29.51,0,0,0,316.33,107.84Zm2.86-11-1-.4a62.11,62.11,0,0,1,3.2-6.72l.94.52A58.23,58.23,0,0,0,319.19,96.81Zm5.28-10.2-.9-.57c1.3-2,2.74-4.08,4.3-6.07l.84.66C327.18,82.59,325.75,84.6,324.47,86.61Zm6.9-9.21-.8-.7c1.61-1.86,3.33-3.68,5.1-5.4l.75.77C334.67,73.77,333,75.56,331.37,77.4Z"/><path class="cls-3" d="M317,226.73l0-1.07c1.26,0,2.5,0,3.73-.07l0,1.07Z"/><polygon class="cls-4" points="342.03 54.95 321.74 41.67 409.22 24.54 342.03 54.95"/><polygon class="cls-5" points="342.03 54.95 347.93 68.25 409.22 24.54 342.03 54.95"/><polygon class="cls-6" points="350.71 61.18 347.93 68.25 361.04 59.55 350.71 61.18"/><polygon class="cls-4" points="350.71 61.18 367.42 89.26 409.22 24.54 350.71 61.18"/><path class="cls-7" d="M33.14,240.21s-17.78,4.3-27,8.28-21.64,3.71,76.65,20.2,104.9,19.6,101.78,24.13,40.87,8.54,57.68,6.67,22.66-6.67,22.66-6.67,38.16,3.47,62.42,21.07c38.85-16.26,106.15-45.2,106.15-45.2l-53.62-13.2Z"/><polygon class="cls-8" points="308.01 238.74 298.61 237.66 295.48 241.44 308.01 238.74"/><path class="cls-9" d="M271.29,16.13l-.07,45.29s-53.28,4.09-64.83.44-6.13-19-6.12-26.24.19-25.08,2-29.26,10.65-2,21.45-.66S271.29,16.13,271.29,16.13Z"/><path class="cls-10" d="M200.27,35.62c0-7.3.19-25.08,2-29.26s10.65-2,21.45-.66,47.52,10.43,47.52,10.43v7.58c-9.88-2.4-35.54-7.33-44.13-8.4-10.8-1.34-18.42-2.77-20.28,1.41s-2.49,20.19-2.5,27.49c0,4-1.65,10.45-1.2,16C196,54.93,200.26,42.11,200.27,35.62Z"/><g class="cls-11"><path class="cls-12" d="M200.58,7l70.19,12.8S214.45,7.41,200.58,7Z"/><path class="cls-12" d="M198.72,33l70.81,5.52S212.51,32.06,198.72,33Z"/><path class="cls-12" d="M198.72,30.1l70.78,7.33S212.54,29.43,198.72,30.1Z"/><path class="cls-12" d="M198.73,28.35l70.77,7.33S212.54,27.68,198.73,28.35Z"/><path class="cls-12" d="M198.75,26l70.73,8S212.58,25.51,198.75,26Z"/><path class="cls-12" d="M198.82,23l70.59,9.52S212.67,22.74,198.82,23Z"/><path class="cls-12" d="M198.83,20.78l70.59,9.51S212.67,20.54,198.83,20.78Z"/><path class="cls-12" d="M198.87,18.08l70.51,10.2S212.72,18,198.87,18.08Z"/><path class="cls-12" d="M198.87,15.57l70.52,10.19S212.72,15.46,198.87,15.57Z"/><path class="cls-12" d="M198.92,13l70.43,11S212.77,13,198.92,13Z"/><path class="cls-12" d="M198.61,10.12l70.43,11S212.47,10.16,198.61,10.12Z"/><path class="cls-12" d="M200.75,57l68.3-.09S214.51,59,200.75,57Z"/><path class="cls-12" d="M199,35.16l70.25,4.75S212.84,37.7,199,35.16Z"/><path class="cls-12" d="M199,37.49l70.2,4S212.73,40.39,199,37.49Z"/><path class="cls-12" d="M199.07,40.58l70.08,2.52S212.8,43.2,199.07,40.58Z"/><path class="cls-12" d="M199.06,42.8l70.08,2.53S212.8,45.42,199.06,42.8Z"/><path class="cls-12" d="M199.09,45.53l70,1.81S212.83,48,199.09,45.53Z"/><path class="cls-12" d="M199.08,48.06l70,1.82S212.82,50.54,199.08,48.06Z"/><path class="cls-12" d="M199.12,50.66l69.93,1.05S212.87,53,199.12,50.66Z"/><path class="cls-12" d="M198.8,53.5l69.93,1S212.55,55.83,198.8,53.5Z"/><path class="cls-12" d="M200.18,59.1l70.26.82S214,61.13,200.18,59.1Z"/></g><path class="cls-13" d="M207.55.07S91.4,12.59,81.93,15.4s-7.32,30.94-5.7,39.66,8,11.27,14.8,11.54,126.55-.22,126.55-.22-16.15-3-17.86-15.23,1.1-36.66,1.65-40.81S207.55.07,207.55.07Z"/><path class="cls-14" d="M156.31,53.39c-1.59-12,1-35.77,1.53-39.81.35-2.78,2.92-6.46,4.51-8.5h0l-8.31,1c-1.58,2.09-3.87,5.5-4.2,8.1-.51,4-3.12,27.84-1.53,39.81.93,7,4.12,10.72,6.62,12.62l8.82,0C161.16,64.9,157.34,61.15,156.31,53.39Z"/><path class="cls-14" d="M142.39,53.79c-1.59-11.67,1-34.85,1.53-38.79.34-2.69,2.9-6.26,4.48-8.25l-8.36,1c-1.59,2.05-3.82,5.31-4.14,7.81-.51,3.94-3.12,27.13-1.53,38.8.92,6.77,4.08,10.4,6.58,12.27l8.81,0C147.19,65,143.41,61.31,142.39,53.79Z"/><path class="cls-15" d="M196.71,32.62c.09-1.86.18-3.65.24-5.32,0-1.11.06-2.23.09-3.36.23-8.77.46-17.84,5.59-21.9C205,.2,208-.4,211.55.26c10.34,1.88,54,11.19,63.45,13.21v6.17c-6.16-1.32-53.74-11.48-64.33-13.4-2.39-.43-3.46.13-4,.6-3,2.39-3.21,10.41-3.39,17.49,0,1.15-.06,2.3-.1,3.42-.06,1.7-.22,4.67-.25,5.4-.05,1.56-.86,23.52,2.85,26,4.11,2,38.24,3.75,69.21,2.23v6.11c-12,.58-39.78-.35-57.34-1.06-7.22-.29-12.72-.9-14.7-2C195.32,60.22,196,46.19,196.71,32.62Z"/><path class="cls-16" d="M206.54,40.86s1.08,15,1,24.72c5.76.63,12,.88,12,.88S216.89,41.55,206.54,40.86Z"/><path class="cls-17" d="M83.58,17.05S162.15,7.88,175,6.67s17.23-2.36,19-1.13,1,12.59,0,14.26-8.88,1.59-17.54,1.82-93,4.07-95.49,4.14-2-3.86-1.13-5.44S81.8,17.26,83.58,17.05Z"/><path class="cls-18" d="M275,112.24s5.88,15.79,5.68,28.81a75.45,75.45,0,0,0,4.31-7.17l7,6.27s-4.32-29-9.87-37.82S275,112.24,275,112.24Z"/><path class="cls-19" d="M64.47,112.73l21.12,13.59h177l19.57-13.59s-85.44-2.92-113.45-5S64.47,112.73,64.47,112.73Z"/><path class="cls-20" d="M64.47,65.49s209.27.88,216.91,1.77c4.71,1.47,4.41,13.52,4.71,23.8s.58,20.11-4,21.67-214.22.11-217.65,0S58.69,106,58.3,95.18,56.73,65.46,64.47,65.49Z"/><path class="cls-21" d="M86.43,65.59l-7.6,0a10.23,10.23,0,0,0-1.72,6.3v29.93c0,3.91,1.9,8.48,3.35,11.08l9.31.06a20,20,0,0,1-5.14-10.47c-.91-7.13-.77-25.21-.4-29.47C84.52,69.65,85.42,66.86,86.43,65.59Z"/><path class="cls-21" d="M99.75,65.66l-7.6,0a10.37,10.37,0,0,0-1.67,6.24v29.93c0,4,1.94,8.59,3.4,11.17l9.34.06A20.21,20.21,0,0,1,98,102.46c-.91-7.13-.77-25.21-.4-29.47C97.89,69.71,98.77,67,99.75,65.66Z"/><path class="cls-21" d="M256.33,113.35c3.35,0,6.44,0,9.23-.09,1.43-2.63,3.21-7,3.21-10.8V72.53a11,11,0,0,0-1.29-5.64l-7.68-.11a17.13,17.13,0,0,1,1.84,6.88c.37,4.26.52,22.34-.39,29.47A19.92,19.92,0,0,1,256.33,113.35Z"/><path class="cls-21" d="M242.9,113.41l9.23,0c1.44-2.62,3.27-7.07,3.27-10.91V72.53a10.89,10.89,0,0,0-1.4-5.82l-7.68-.08a16.68,16.68,0,0,1,2,7c.37,4.26.51,22.34-.39,29.47A20,20,0,0,1,242.9,113.41Z"/><path class="cls-22" d="M64.47,68.73h212c4.9,0,6.57,2.19,7,6.1s-1.18,4.59-11,4.46-201.53,0-208,0S59.62,68.73,64.47,68.73Z"/><path class="cls-23" d="M180.6,277.22S44,250.06,33.76,247,20.47,213.74,32,210s141.75-11.74,141.75-11.74l151.62,8.7Z"/><path class="cls-24" d="M33.76,247C44,250.06,180.6,277.22,180.6,277.22l78-39.78L27.71,213.36C21.59,222.31,25.13,244.34,33.76,247Z"/><path class="cls-9" d="M321.7,210.57c-28.12,2.32-128.51,11.07-142.2,18.67-15.94,8.86-10.63,43.86,2.66,44.75,10.77.71,104.37-19.21,139.54-26.8Z"/><path class="cls-10" d="M186.87,240.21c12.68-7.05,99.69-15.07,134.83-18.06V210.57c-28.12,2.32-128.51,11.07-142.2,18.67-14.48,8-11.43,37.63-.8,43.68C175.23,261.66,176.85,245.77,186.87,240.21Z"/><path class="cls-25" d="M325.36,243c-42.83,9.29-130.18,27.69-142.41,27.69l-.57,0c-3.52-.23-6.95-5.11-8.52-12.14-2.22-9.88-.43-22.11,7.26-26.38,12.14-6.75,104.69-15.38,144.24-18.55v-6.67c-23.89,1.91-132.28,11-147.47,19.41-11,6.13-13.18,21.74-10.52,33.64,2.29,10.24,7.1,16.84,13.8,17.28.21,0,1.22.06,1.49.06,14.5,0,109.26-20.26,142.7-27.52Z"/><path class="cls-12" d="M182.16,234.79,319.93,216S208.52,228.15,182.16,234.79Z"/><path class="cls-12" d="M180.5,238.63l137.77-18.82S206.86,232,180.5,238.63Z"/><path class="cls-12" d="M177,243l140.2-19.69S203.32,236.31,177,243Z"/><path class="cls-12" d="M176.8,247.3l140.14-21.1S203.16,240.65,176.8,247.3Z"/><path class="cls-12" d="M176.8,251.2l140.14-22S203.16,244.55,176.8,251.2Z"/><path class="cls-12" d="M176.8,254.86l140.14-23.12S203.16,248.21,176.8,254.86Z"/><path class="cls-12" d="M177.87,257.46l139.29-22.9S204.23,250.81,177.87,257.46Z"/><path class="cls-12" d="M177.87,260.61l139.07-23.17S204.23,254,177.87,260.61Z"/><path class="cls-12" d="M179.85,264.27l137.64-24.89S206.21,257.62,179.85,264.27Z"/><path class="cls-12" d="M182.16,267.49l136.11-25.7S208.52,260.85,182.16,267.49Z"/><path class="cls-26" d="M29.5,215.29l111.79,16.45c19.27,2.82,23.93,2,23.26,10s-3.32,8-30.73,4.22S34.65,228.25,29.5,227.42,26.64,214.87,29.5,215.29Z"/><path class="cls-27" d="M116.6,261.55a3.17,3.17,0,0,1-.53-.05c-24.75-4-54.53-10.29-63.07-12.12a4.39,4.39,0,0,1-3.33-3.24c-1.17-4.88-3.26-17.07,2.57-25a3.94,3.94,0,0,1,3.68-1.53l62.73,7.69a3.36,3.36,0,0,1,2.88,4.13,82,82,0,0,0-1.68,26.47,3.31,3.31,0,0,1-1,2.73A3.26,3.26,0,0,1,116.6,261.55ZM55.41,220.41a3.13,3.13,0,0,0-2.54,1.24c-5.63,7.62-3.58,19.54-2.43,24.31a3.59,3.59,0,0,0,2.73,2.65c8.53,1.83,38.29,8.11,63,12.12a2.49,2.49,0,0,0,2.87-2.71,82.76,82.76,0,0,1,1.7-26.73,2.58,2.58,0,0,0-2.2-3.17l-62.74-7.68Z"/><ellipse class="cls-28" cx="141.13" cy="250.41" rx="7.31" ry="10.2"/><path class="cls-25" d="M135.65,250.74c0-5.63,3.27-10.19,7.3-10.2a5.33,5.33,0,0,0-1.82-.33c-4,0-7.31,4.57-7.31,10.2s3.27,10.2,7.31,10.2h0C138,259.48,135.65,255.5,135.65,250.74Z"/><ellipse class="cls-28" cx="41.35" cy="231.88" rx="5.59" ry="7.81"/><path class="cls-25" d="M37.15,232.14c0-4.31,2.5-7.8,5.59-7.81a4.11,4.11,0,0,0-1.39-.25c-3.09,0-5.6,3.49-5.6,7.8s2.51,7.81,5.6,7.81h0C38.94,238.82,37.15,235.78,37.15,232.14Z"/><path class="cls-16" d="M183.52,249.76s1.19,16.88,1.08,27.46c3.08-.24,12.56-1.62,12.56-1.62S194.67,250.06,183.52,249.76Z"/><path class="cls-18" d="M183.52,249.69s11.36,7.22,12,41.23c5.31-5.53,9-9,9-9l9.6,5.61s-6.31-36-13.75-41C189.44,247.66,183.52,249.69,183.52,249.69Z"/><path class="cls-29" d="M164.1,223.28s119.31-14.46,128.1-17.65,11.47-29.35,1.53-32-122.37-8.53-122.37-8.53L40.49,169.56Z"/><path class="cls-18" d="M292.2,205.63c-8.79,3.19-128.1,17.65-128.1,17.65l-58-34.22,58.3-11.38,133.06-1.37C302.71,183.73,299.65,202.92,292.2,205.63Z"/><path class="cls-9" d="M43.64,172.51c24.28.59,110.93,3.08,122.75,9,13.77,6.85,9.18,37.32-2.29,38.76-9.3,1.16-90.1-11.31-120.46-16.09Z"/><path class="cls-10" d="M160,191.3c-10.95-5.44-86.06-8-116.39-8.79v-10c24.28.59,110.93,3.08,122.75,9,12.5,6.22,9.87,31.91.69,37.66C170.08,209.23,168.68,195.6,160,191.3Z"/><path class="cls-30" d="M40.49,200.7c37,5.86,112.37,17.33,122.93,16.71l.49,0c3-.38,6-4.77,7.35-10.91,1.91-8.64.37-19.11-6.26-22.41-10.48-5.21-90.38-8-124.51-8.74v-5.75c20.62.44,114.18,2.79,127.29,9.31,9.52,4.74,11.38,18.1,9.08,28.52-2,9-6.79,15-12.57,15.68l-.63.05c-12.52.74-94.31-12-123.17-16.55Z"/><g class="cls-11"><path class="cls-12" d="M164.1,186.38l-118.93-9.3S141.34,182,164.1,186.38Z"/><path class="cls-12" d="M165.53,189.62,46.6,180.32S142.77,185.21,165.53,189.62Z"/><path class="cls-12" d="M168.58,193.17l-121-9.92S145.83,188.76,168.58,193.17Z"/><path class="cls-12" d="M168.72,196.91l-121-11.14S146,192.5,168.72,196.91Z"/><path class="cls-12" d="M168.72,200.28l-121-11.91S146,195.87,168.72,200.28Z"/><path class="cls-12" d="M168.72,203.44l-121-12.89S146,199,168.72,203.44Z"/><path class="cls-12" d="M167.8,205.74,47.56,193S145.05,201.33,167.8,205.74Z"/><path class="cls-12" d="M167.8,208.46l-120-13S145.05,204.05,167.8,208.46Z"/><path class="cls-12" d="M166.09,211.72,47.27,197.17S143.34,207.31,166.09,211.72Z"/><path class="cls-12" d="M164.1,214.61,46.6,199.29S141.34,210.21,164.1,214.61Z"/></g><path class="cls-30" d="M296,179s-74.91,5.83-94.52,7.79c-16.9,1.68-21.68.52-21.11,7.44s10.24,5.46,34.22,2.9c26.64-2.84,76.84-7.65,81.28-8.63S298.48,178.54,296,179Z"/><path class="cls-31" d="M284.35,207.24a.42.42,0,0,1-.38-.31.37.37,0,0,1,.27-.47c1.28-.28,5.39-2.92,6-5.76a133.19,133.19,0,0,0,1.91-15.37c.38-5.37-3.29-7.52-3.45-7.61a.41.41,0,0,1-.17-.54.37.37,0,0,1,.52-.14,8.87,8.87,0,0,1,3.88,8.4A133,133,0,0,1,291,200.92c-.69,3.09-5,6-6.58,6.31Z"/><path class="cls-31" d="M279.21,207.78a.42.42,0,0,1-.38-.31.38.38,0,0,1,.28-.47c1.27-.27,5.39-2.91,6-5.76a133.56,133.56,0,0,0,1.9-15.37,7.94,7.94,0,0,0-3.44-7.61.41.41,0,0,1-.18-.54.38.38,0,0,1,.53-.14,8.91,8.91,0,0,1,3.88,8.4,132.69,132.69,0,0,1-1.93,15.48c-.69,3.09-5,6-6.58,6.31A.21.21,0,0,1,279.21,207.78Z"/><path class="cls-32" d="M197,194.33c.46,9.59-.93,16.55-4.93,25.5l10.08-1.27a65.37,65.37,0,0,0,4.14-22.74c.06-6.17-1.7-10.4-3.62-13.19l-9.35.62A22.48,22.48,0,0,1,197,194.33Z"/><path class="cls-32" d="M211.66,193.36a50.3,50.3,0,0,1-4.53,24.56l10.05-1.28A67.52,67.52,0,0,0,221,194.85c.06-6.18-1.7-10.41-3.62-13.2l-9.35.62A22.52,22.52,0,0,1,211.66,193.36Z"/><path class="cls-16" d="M159.38,195.47s-1.1,17.67-1,27.52c-2.88-.22-12-1.08-12-1.08S149,195.75,159.38,195.47Z"/><path class="cls-33" d="M159.38,195.47s-10.59,7.93-11.21,39.64c-5-5.15-8.36-8.42-8.36-8.42l-8.95,5.23s5.88-33.55,12.82-38.26C153.86,194.79,159.38,195.47,159.38,195.47Z"/><path class="cls-9" d="M80.3,117.71v45.44s52.63,6.25,64.05,3,6.09-18.76,6.09-26.07-.16-25.16-2-29.43-10.52-2.44-21.19-1.53S80.3,117.71,80.3,117.71Z"/><path class="cls-10" d="M150.44,140.13c0-7.32-.16-25.16-2-29.43s-10.52-2.44-21.19-1.53-47,8.54-47,8.54v7.61c9.76-2,35.12-5.92,43.61-6.64,10.67-.92,18.2-2,20,2.23s2.43,20.35,2.43,27.67c0,4,1.61,10.55,1.16,16.13C154.65,159.67,150.44,146.64,150.44,140.13Z"/><g class="cls-11"><path class="cls-12" d="M150.16,111.4l-69.35,10S136.46,111.26,150.16,111.4Z"/><path class="cls-12" d="M152,137.55l-70,2.68S138.35,136.06,152,137.55Z"/><path class="cls-12" d="M152,134.65,82,139.15S138.32,133.42,152,134.65Z"/><path class="cls-12" d="M152,132.9,82,137.4S138.32,131.67,152,132.9Z"/><path class="cls-12" d="M151.94,130.58l-69.87,5.21S138.29,129.49,151.94,130.58Z"/><path class="cls-12" d="M151.88,127.51l-69.75,6.7S138.21,126.71,151.88,127.51Z"/><path class="cls-12" d="M151.88,125.31,82.13,132S138.21,124.5,151.88,125.31Z"/><path class="cls-12" d="M151.85,122.59,82.16,130S138.16,121.93,151.85,122.59Z"/><path class="cls-12" d="M151.85,120.07l-69.69,7.38S138.16,119.4,151.85,120.07Z"/><path class="cls-12" d="M151.8,117.48l-69.59,8.15S138.11,117,151.8,117.48Z"/><path class="cls-12" d="M152.11,114.62l-69.6,8.14S138.42,114.1,152.11,114.62Z"/><path class="cls-12" d="M149.93,161.54l-68.85-3.68S136.34,163,149.93,161.54Z"/><path class="cls-12" d="M151.69,139.72l-69.41,1.93S138,141.7,151.69,139.72Z"/><path class="cls-12" d="M151.67,142.05l-69.36,1.21S138.12,144.42,151.67,142.05Z"/><path class="cls-12" d="M151.61,145.16l-69.24-.31S138,147.23,151.61,145.16Z"/><path class="cls-12" d="M151.62,147.38l-69.24-.29S138,149.45,151.62,147.38Z"/><path class="cls-12" d="M151.58,150.11l-69.17-1S138,152.05,151.58,150.11Z"/><path class="cls-12" d="M151.59,152.66l-69.17-1S138,154.59,151.59,152.66Z"/><path class="cls-12" d="M151.55,155.26l-69.09-1.77S138,157.05,151.55,155.26Z"/><path class="cls-12" d="M151.86,158.12l-69.09-1.77S138.27,159.91,151.86,158.12Z"/><path class="cls-12" d="M150.48,163.69l-70-3.24S136.87,165.16,150.48,163.69Z"/></g><path class="cls-33" d="M143.29,104.18S258,121.41,267.37,124.62s8.12,27.26,6.51,35.94-7.93,11-14.64,11-118.77-1.43-118.77-1.43S149.25,168,151,155.73s-1-36.82-1.57-41S143.29,104.18,143.29,104.18Z"/><path class="cls-14" d="M192.38,119.33c.5,3.88,3.05,26.73,1.46,38.11-1.36,9.78-7.57,12.62-9.29,13.23l9.6.12c2.53-1.42,6.55-4.82,7.61-12.46,1.59-11.38-1-34.23-1.45-38.11-.32-2.51-2.58-5.85-4.15-7.91L187.94,111C189.5,113,192,116.66,192.38,119.33Z"/><path class="cls-14" d="M206.14,121.25c.5,3.78,3,26.05,1.46,37.14-1.16,8.11-5.83,11.32-8.26,12.46l9.29.12c2.52-1.6,5.92-5,6.89-11.71,1.58-11.09-1-33.36-1.46-37.14-.32-2.41-2.52-5.61-4.08-7.63l-8.27-1.31C203.28,115.15,205.8,118.66,206.14,121.25Z"/><path class="cls-34" d="M154,137.26c-.09-1.86-.18-3.66-.23-5.34,0-1.11-.07-2.24-.09-3.38-.21-8.8-.43-17.91-5.5-22.19-2.28-1.94-5.24-2.66-8.8-2.15-10.22,1.47-53.39,9-62.7,10.69v6.2c6.08-1.07,53.11-9.35,63.57-10.85,2.37-.34,3.41.27,4,.77,3,2.51,3.16,10.57,3.33,17.68,0,1.15.05,2.3.09,3.43.06,1.71.21,4.7.24,5.43,0,1.57.81,23.62-2.85,25.91-4.07,1.85-37.78.12-68.38-2.65v6.12c11.9,1.07,39.3,3.35,56.65,3.35,7.13,0,12.57-.38,14.53-1.4C155.29,165,154.61,150.9,154,137.26Z"/><path class="cls-16" d="M144.24,145.13s-1.09,15.06-1,24.76c-5.7.39-11.83.39-11.83.39S134,145.41,144.24,145.13Z"/><path class="cls-24" d="M144.24,145.12s-11.1,9.14-11.71,40.48c-4.87-4.33-8.22-7-8.22-7l-8.81,6.49s6.21-34.32,13-40A139.7,139.7,0,0,1,144.24,145.12Z"/><path class="cls-35" d="M155.11,109.32s104,16.32,107.74,17,4.41,4.42,5.19,7.26-2.25,1.67-8.52,1.08S166.44,123,161.74,122.39s-5.39-2.39-6.17-5-1.91-6.39-1.77-7.17S154.31,109.2,155.11,109.32Z"/><path class="cls-36" d="M161.79,170.09a.53.53,0,0,1-.29-1c.91-.62,4.42-6.48,4.69-12.79.27-6.15.27-20.11,0-31.77-.25-11.34-3.95-15.48-4-15.52a.53.53,0,0,1,.78-.73c.17.18,4,4.42,4.28,16.22s.27,25.67,0,31.84-3.81,12.72-5.17,13.63A.53.53,0,0,1,161.79,170.09Z"/><path class="cls-36" d="M167.72,170.7a.54.54,0,0,1-.45-.24.54.54,0,0,1,.15-.74c.91-.61,4.42-6.47,4.7-12.79.26-6.15.26-20.11,0-31.77-.26-11.34-4-15.48-4-15.52a.53.53,0,1,1,.78-.72c.16.17,4,4.41,4.27,16.22s.27,25.67,0,31.84-3.81,12.72-5.17,13.63A.52.52,0,0,1,167.72,170.7Z"/><path class="cls-33" d="M206.54,40.85s11.21,9.56,11.79,40.83c4.93-4.12,8.33-6.69,8.33-6.69l8.9,6.84s-6.23-34.47-13.13-40.41A142.49,142.49,0,0,0,206.54,40.85Z"/><path class="cls-15" d="M177.55,194.79S206.1,213.42,222,263.15c-3.5,8.1,1.56,18.5,12.68,14.23,7.7-1.93,50.41-13.27,80.07,25.22,43.91-17.68,94-34.31,94-34.31s1.85-5.13,1.54-5.36c-1.36-1-7.27,2.58-10.25,1.24-17.06-7.71-55.25-23.06-78.62-17.91-9.13,1.94-14,.54-14-4.47S292,194.57,280.07,183.67c-29.4.29-75.83,9.29-94.1,9.57-.64,0-4.92-4.19-6.12-4C179.07,189.37,177.55,194.79,177.55,194.79Z"/><path class="cls-37" d="M179.85,189.24s31.13,22.25,47,72c-3.51,8.1-.06,15.35,11.06,11.07,7.7-1.93,50-10,79,25.34,43.91-17.68,93.35-34.7,93.35-34.7s-53.92-28-84.71-21.23c-9.13,1.94-14,.54-14-4.46S296.11,190,284.23,179.11C247.44,179.48,179.85,189.24,179.85,189.24Z"/><path class="cls-38" d="M285.23,171.54l-90,6c-3.46,11,36.14,64.22,36.14,64.22a119.38,119.38,0,0,0,7.48,18l78-22.57C308.54,202,285.23,171.54,285.23,171.54Z"/><path class="cls-39" d="M316.94,237.44l-.06-.24-78,22.57.42.84c42.14-7.86,80.63,21,80.63,21s19.34-6.22,92.95-34.32C394,238,332.87,233.62,316.94,237.44Z"/><path class="cls-40" d="M321.74,275.21h0S289,248.39,241.13,259c-5.6-24-30.67-74.52-45.87-81.44-4.8,3.83-10.71,8.08-10.71,8.08s34.36,32,44.49,75c7.65-.32,11.38,8.08,11.38,8.08s25.92-5.47,46.05.8,32.8,23.33,32.8,23.33l.26-.09,92.28-33.24,1.07-12.19Z"/><path class="cls-41" d="M321.7,275.22S289,248.39,241.13,259c-5.6-24-30.67-74.52-45.87-81.44-4.8,3.83-10.71,8.08-10.71,8.08s34.36,32,44.49,75c7.65-.32,11.38,8.08,11.38,8.08s25.92-5.47,46.05.8,32.8,23.33,32.8,23.33l.26-.09,2.21-17.52Z"/><path class="cls-38" d="M241.13,259.77s34.54-14.48,80.61,7.72c49-13.6,87.41-25.75,87.41-25.75s-51.87-14.08-92.21-4.3S245.13,257.11,241.13,259.77Z"/><path class="cls-9" d="M241.13,259s2.85-47.71-32.5-88c22.9-2.69,88.51-3.86,88.51-3.86s21.47,38.68,19.8,70.33C281.42,246.46,241.13,259,241.13,259Z"/><path class="cls-33" d="M323.53,236.07s-61.63,16.48-74.86,21.51-12.34,36.49-12.34,36.49l-5.69-8.18-5.33,5s2.29-26.13,15-35.14S311.7,236,323.53,236.07Z"/><path class="cls-42" d="M305.81,228.69A144.13,144.13,0,0,0,282,230.55a64.26,64.26,0,0,0-2.31-21.38c-5.21-19.18-17-32.68-26.32-30.15s-12.67,20.14-7.46,39.32c3.61,13.28,10.37,23.83,17.27,28.23,6.87,4.73,23.35,8.07,42.6,8.07,25.4,0,46-5.81,46-13S331.21,228.69,305.81,228.69Z"/><path class="cls-28" d="M351.37,164.15A53.25,53.25,0,1,1,277,152.53,53.25,53.25,0,0,1,351.37,164.15Z"/><g class="cls-43"><path class="cls-44" d="M314.64,226.53a1.26,1.26,0,0,0-.13-.26l-.06,0Z"/></g><path class="cls-24" d="M265.12,167.31c.43-.38.87-.45,1.32-.79a13.12,13.12,0,0,0,2.21-2.8c.44-.59,1.78-2.43,2.64-1.89,0,.28-.46,1-.2,1.29s.88-.22,1.14-.26a6,6,0,0,0,.09,1.8c.84.11.85-.86.93-1.44a4.57,4.57,0,0,1,.58-1.82,5.14,5.14,0,0,0,.73-1.39,7.07,7.07,0,0,1,.44-1.7,19,19,0,0,1,2.16-2.71c.39-.48.93-.82,1.34-1.27s.8-1.07,1.24-1.57c.65-.74,1.9-2.3,3-2.14-.41.69-1.45,1.1-1.82,1.83-.24.49,0,.56-.51.94s-1,.45-.94,1.06c.28,0,.56-.06.7.19.55,0,1-.82,1.37-.37s-.47,1-.38,1.45c.14.6,1-.49,1.13-.76a8.39,8.39,0,0,1,.57-1.57,16.77,16.77,0,0,1,1.6-1.44,4.18,4.18,0,0,1,1.37-1,18,18,0,0,0,1.88-.89c.38-.24.79-.73,1.26-.67l.07.12c.28-.23.67-.44.95-.64s.6-.55.83-.69a25.21,25.21,0,0,1,2.83-1.26c.54-.24.82-.77,1.34-.84.23,0,.32.1.63,0s.44-.38.63-.51c.4-.25,3-.63,2.65-1.23s-3.1,0-3.63,0a24.24,24.24,0,0,0-2.8.32A53.14,53.14,0,0,0,277,152.53a53.72,53.72,0,0,0-6.39,5.48,69.76,69.76,0,0,0-5.26,6.35c-.45.61-.92,1.19-1.37,1.78-.53.8-1,1.61-1.51,2.43a6.45,6.45,0,0,0-.49,1.54c.67-.6,1.41-1.15,2.1-1.72C264.43,168.08,264.74,167.65,265.12,167.31Z"/><path class="cls-24" d="M294.07,154.69c-.64-.19-.81.38-1.29.55,0-.12,0-.24,0-.36a9,9,0,0,0-.92.07,2.69,2.69,0,0,1,0-.63s.19-.09.25-.13-.1-.15-.07-.25c.29-.23.22-.33.26-.66l-.19-.19c-.25.08-.82.31-.91.36s-.62-.11-.6.42a5.3,5.3,0,0,0-1.32.43c-.46.78.71.46.36,1.12a1.47,1.47,0,0,0-1.3-.13,3.08,3.08,0,0,1-.93.26c.2.73,0,.63-.28,1.14-.08.13-.35.11-.47.28s.09.54,0,.72c-.45.61-2.19.7-1.57,1.8.53-.48,1.12.24,1.59-.38.34.2,1.49-.78,1.73-1.1s.23-.72.63-1c.12-.07.72,0,.94-.07-.18.73-1.45,1.29-1.53,2s.47.39.78.2c.16-.1.25-1.15.68-.3.56-.19,1.42-.62,1.59-1.21a.84.84,0,0,0,.84.36c.13-.53.78-.61.69-1.3.07,0,.26.09.36.19a.68.68,0,0,0-.08-.94C293.86,155.8,294,155.2,294.07,154.69Z"/><path class="cls-45" d="M314.33,226.09a1.76,1.76,0,0,0-.14-.27h-.05Z"/><path class="cls-24" d="M358.47,177.49a53.34,53.34,0,0,0-50.62-35.2,2.28,2.28,0,0,0-1,.84c-.29.53-.26.33,0,.74s1.61.33,1.84.63c.8,1.06-1.13.67-.84,1.46-.33.14-1.65-.19-.78.71-.07,0-.18,0-.24.08.12.94.86.63,1.6.74.9.13,1.37.73.46,1.33.33.45.47,1.22-.26,1.31-.3-.86-.54.11-.84,0s-.64-.33-.25-.79a2.49,2.49,0,0,1-1.3-.19c.09-.05.29-.21.38-.26-.3,0-.94.2-1.15,0-.38-.35.08-.6.39-.67a3.6,3.6,0,0,1-1.14-.3c.29-.28.73-.4,1-.77-.33-.38-1.24-.27-1.69-.3a8.87,8.87,0,0,0-1.83-.26,4.53,4.53,0,0,0-3.31,1.61c-.84,1.14-2.05,1.12-3.22,1.91-.77.53-2.09,1.73-2,2.71.06.1.15-.05.18-.05-.28,1.13,1.45.47.94-.48.21.09.35,0,.57.18.21-.28,1.1-1.93,1.33-.6.51,0,.55-.53,1.11-.44a15.37,15.37,0,0,0-.07,2.34c.83.21,2-.84,1.7-1.67,1-.23.17-1.2.44-1.84a5,5,0,0,1,.68-.83c.31-.25.35-.57.94-.46.09.63-.55.93-.45,1.58,1.06.1.95.73,2.07.22.67-.3,1.38-.67,1.33.53.64.23,1.37-.09,2,.11.26.08.31.38.5.46s.77.18.8.22c1.39,1.63-1.89.81-2,.92-.34-.68-1.65-.15-1.91.37-.38.75.6,1.06-.59,1.09-.35,0-.46-.23-.94-.05-.32.12-.48.45-.83.59a10,10,0,0,1-1.14.19,9.44,9.44,0,0,1-1.13.45c-.62,0-1.09-.67-1.9-.45-.58.16-.51.42-.94.73s-.79.12-1.12.33c-.75.48-.39,1.38-.84,2-.2.26-.59.26-.81.52s-.2.67-.47,1a2.94,2.94,0,0,1-1.09-.16c-.48.67-1.78-.21-2.18.82.11,0,.24,0,.35,0-.14.14-.17.4-.26.53,1.64-.06.79,1.81-.11,2.3-.32-.34-1.06.25-1.51.36-.18,0-.23.29-.38.3s-.23-.22-.38-.21c-.46.06-.78.21-1.1-.1a3.33,3.33,0,0,0-.79,1.25,5.31,5.31,0,0,0-.4,1.68c-.13.94-1.7,3,.38,2.64a8.19,8.19,0,0,0,1.43-.75c.2-.09.23-.37.38-.44s.42.06.58,0a3,3,0,0,0,.94-.47c.39-.36.65-.78,1-1.16a4,4,0,0,0,.89-1.38c2,.09.44-1.41,1.71-1.89.65-.25,1,.37,1.66,0,.3-.19.21-.58.47-.76s.49-.07.76-.19c.65-.28.67-.48,1.44-.26.19.06.34.29.56.38s.51,0,.79.07c.55.18,2.44,1.67,2.61.13-.79,0-2.38-.31-2.06-1.42,1.83-.77,2.87.6,4.15,1.41a3.84,3.84,0,0,1,1.54,1.39c.33.73,0,1.69,1.19,1.43a5.29,5.29,0,0,0,.16-.63s-.11-.14-.13-.18c.78-.36,0-.53,0-.88,0-.2-.33-.09-.23-.5.05-.17.61-.14.68-.37.17-.56-.78-.58.11-.95.5-.2,1.13,0,.87.57a.62.62,0,0,1,.37.76l.35,0c.15.61-.23,1.7.47,2,0,.13,0,.31,0,.44.84.12,1.32-.31,2.07-.55a5.36,5.36,0,0,1,2-.47c.41.08.31.49.75.45s.59-.55.83-.67c1.18-.57.61.26,1,1a1.83,1.83,0,0,1-.39-.09c.29.24.64.43.89.63a11.16,11.16,0,0,1-1.42-.07c.34.09,1.3.35,1.25,1a3.51,3.51,0,0,0,.56,0c0,.1,0,.19,0,.27s-.09.15-.19.29l-.44,0c0,.42-.28.57-.66.54-.05-.08-.08-.18-.13-.26-.44.31-2.52,1.22-2.64.48-.31,0-.43-.17-.72,0a.91.91,0,0,0-.88-.55c-.27.36-.07.79-.25,1.06s-.67.37-.87.8a.61.61,0,0,1,0,.86c-.72,0-.5-.73-.95-1-.19-.12-.43.06-.64,0a5.85,5.85,0,0,0-.93-.41c-1.86-.25-.06,1.94-1.41,2.09-.19-.15-3.5,1.51-3.16.23-1-.12-.09-.58-.34-1s-.91-.21-1.35-.19-2.92.13-2.09-1.21c-.12,0-.23-.1-.35-.13.16-.76-.19-1-.5-1.58-.53-.24-.76.22-1.22.37a6.3,6.3,0,0,1-1.53.12c-.65,0-2.26-.11-2.65.71a4.6,4.6,0,0,0-2.54,1.34c-.64.48-.54.52-1.24.31-.44-.13-1-.79-1.33,0-.55-.11-.69.2-1,.49a7.75,7.75,0,0,0-.92.88c-.4.64-.45,2-1.24,2.35.06.52-.6,1-.87,1.4a3.1,3.1,0,0,1-1.49,1.16c0,.5-.77,1.24-1.15,1.56.12,0,.23.11.36.14-.13.73-1.23,1.39-1.49,2.14.16,0,.38.05.54,0-.06.55.38,1,.1,1.49-.71-.05-.89.67-1.49.78.12.31-.07.29.26.48a3.38,3.38,0,0,0-.47,1.69c.14.78.53.75.22,1.61-.4,1.12-1.3,1.85-1.33,3l.35,0a1.18,1.18,0,0,1,.31.92c.13,0,.32.05.44,0a1.06,1.06,0,0,1-.06,1.1,1.23,1.23,0,0,0,.46.67c0-.1.15-.25.2-.35,1-.14,1.25,1.36,1.71,2a8.86,8.86,0,0,1,.74,1.14c.21.37.28.92.47,1.23s.69.47,1,.84.23.91,1.06,1,2.22-.26,2.19-1.21c.56-.15.71.35,1.13.36s.58-.18,1-.19c.65,0,1.5.74,1.71-.55.58,0,.83-.51,1.22-.84s1.11-.39,1.49-.71c.64-.54.76-2.61,1.7-1.38,0,.09,0,.17,0,.25,1-.11,1.37,1.22,1.67,1.84.11.23.23,1.26.3,1.31.5.31,1.14-.26,1.15-.75.42-.12.55.25.92.15s.46-.45.87-.55a2.21,2.21,0,0,1,1.06.08c.61.27.22.22.54.68a3.74,3.74,0,0,1,.86,1.8c.08.85-.53,1.55-.57,2.37a1.78,1.78,0,0,0,.88,1.58c.5.43.72.82,1.29,1.27s3.81.83,2.57,1.94c1.31.06.3.86.62,1.47l.08.13c-.33.62-.38,1.42.6,1.57a6.87,6.87,0,0,0,0,1c0,.15-.33.26-.3.37s.45.38.46.51a2.26,2.26,0,0,1-.67,1.65c-.5.66-.93.83-1.18,1.63a1.82,1.82,0,0,0-.19.83c0-.05.17,1.16.17,1.16.23.53,1.33.85,1.87,1.06.78.31,1,.85,1.51,1.13.32.17.71,0,1.06.08s.6.3.95.37c.93.19,1.61-.06.76.86-.26.28-.75.18-.74.74,1,.46-1.1,1.49-.23,2.3.34.32,1,.12,1.33.45s0,1.11.66,1.44a2.17,2.17,0,0,1,0,.44c.31.2.17.1.38.38a2.32,2.32,0,0,1,1.36,1.07c.2.08.1.2.24.46,0,.08-.13.31-.08.45s.33.08.36.18a3.67,3.67,0,0,1,.2,1.53c.75.1,1.54.23,1.51,1.13.76.1.6-.74.82-1.21a4.86,4.86,0,0,1,.85-1.16c.54-.65.18-.49,1.06-.73.56-.16,1.12-.18,1.15-.93a8,8,0,0,0,3.15-1.13,2.82,2.82,0,0,0,1.38-1c.47-.74.07-.8.17-1.47-.9-.34.15-1.45-.92-1.65.31-1.1,2.23-.38,2.37-1.38A3.2,3.2,0,0,0,328,218a1.33,1.33,0,0,0,.3-1.59c-.14-.31-.41-.54-.56-.84s.11-.28-.27-.68-1.21-.31-1.36-1c-.2-.94.9-.84,1.54-1,1-.32.83-.79,1.48-1.52.25-.26.72-.26.89-.49s.08-.86.27-1.2.51-.33.67-.76a3.3,3.3,0,0,0,.17-.84c-.16-.16.08-1.08,0-1.53-.11-.69-.53-1.2-.31-1.87-.13,0-.21-.1-.34-.13.38-1-.67-1.12-1.34-1.31h0a.8.8,0,0,0-.08-.16,5.42,5.42,0,0,0-.83-1c-.35-.36-.83-.42-1-1-.51-.16-2.84.28-1.85-1,.32-.44,1-.21,1.39-.4.63-.31.47-.29.68-1,.2.08.51,0,.73.06.26-.56,0-1.36.22-1.88.12-.24.62-.43.83-.66a2.11,2.11,0,0,0,.48-.84,3.83,3.83,0,0,1,1-1.52,1.7,1.7,0,0,0,.77-1.59c-.14,0-.31,0-.45,0-.06-.51.43-.72.48-1.2,1.24-.25.53-1.22.92-1.91.2-.35.79-.38.94-.68s-.29-.88-.16-1.38a2.26,2.26,0,0,0,2-2.1l-.26-.11c0-.94.77-1.76,1-2.73s.76-2.27.34-3c-.94-.14-.58,1-.95,1.39s-1.49-.14-1.51.76c-.84.09-1,1.23-1.81,1.51s-2-.31-2,1c-.89-.11-3.32,1.32-3.65-.06.43-.19,2.36-1.24.75-1.36a1.08,1.08,0,0,0-.12-1c-1.1-.15-1.37,1.32-2-.19-.37,0-.65,0-1,.07.05-.9-.17-.93-.67-1.48-.34-.36-.26,0-.48-.6a10.34,10.34,0,0,1-.2-1.39,2.55,2.55,0,0,1-1.43-.56c-.19-.22,0-.64-.18-.79s-.58-.15-.84-.27c-.89-.44-1.79-.6-2.73-1.06.38-1-1.17-.68-1.6-.95-.94-.58-.51-1.12.17-1.4s1.69.1,1.4-.45c-.44-.82-1.2-.16-1.86-.32-.37-.68.53-1.1,1.44-1.53.48.24.85,1,1.1,1.26s1,.71,1,1.31a1.07,1.07,0,0,1,1.14.66c1.26-.09,2.38.76,3.48,1.25.59.26,3.33,1.22,3.33,1.59,1.23.13.94,1.13.75,2,1,.05-.28,1.48.94,1.9a3.84,3.84,0,0,0,2.74-.38,14,14,0,0,1,1.61-.47c.26-.07.61,0,.85-.21.44-.34.09-.39.28-.64.51-.69,1.44-1.1,2.09-1.8-.57-.58.47-1.28.64-1.9-1.05,0-.85-1.17-.66-1.87-.16.06-.48,0-.64.07,0-.34.91-3-.47-1.7.05-.85-.45-.46-.87-.56-.72-.18-.47.15-.75-.66-.2-.6-.47-1.94-1.4-1.68-.28.67-.13,1.93-1.35,1.78-.41,0-.39-.5-.75-.58s-.59.24-1.06,0-.94-1.24-1.3-1.61-1.59-.62-1.15-1.59c-1-.13-.43-1.78.58-1.44.68.22.54,1.41,1.69,1,0,.72,0,.84.39,1.22s.71,0,1,.65c.71.21,1.06-.58,1.76-.54a4.43,4.43,0,0,0,1.27,1,5.81,5.81,0,0,0,1.95,0c.34-.14.21-.57.51-.72s.56,0,.83,0c.58-.12,1.58-.59,1.34.64a5.86,5.86,0,0,1,1.43.22c.87.06.67-.18,1.28.47-.11,1,2.71,1.15,3.4,1,.41.46,1.23.31,1.08,1.1.65.28.07.62.25,1.06s.45.36.94.78c.13.11.17.42.2.45a4.2,4.2,0,0,0,.58.28,1.72,1.72,0,0,1,.39,1.31,2,2,0,0,1,1.5,2c0,.42-.29.8-.12,1.16.28.57.66.27,1,.57.8.63.47,1.33,1.17,1.81v-7.26c-.79-.28.17-1.16-.31-1.74-.34-.41-1.53-.45-1.94-.8a2.78,2.78,0,0,1-.5-.83c-.18-.3-.71-.35-.45-.93.13-.32.64-.17.83-.49s0-.82.11-1.22c.13,0,.31,0,.44,0,0-.56-.2-1.46.66-1.21-.1.71.11,1.85,1,1.8.37.76-.51,1.17.18,1.81.27.26.75,0,1,.33s.07.78.08,1.05c.93.39,1,1.64,2.14,1.42-.07-.3,0-.5-.28-.74.65-.67.5.4.6.57s.51.53.65.93a10.73,10.73,0,0,1,.06,1.26c.09.39.41.55.33,1.1C355.94,175.77,357.73,177.38,358.47,177.49ZM314,161.29c-1-1.08-.7.65-1.25.94s-.87-.28-1.3-.37-.85.11-1.23,0c-.75-.24-1.09-.9-1.7-1.33s-.63-.05-.88-.57c-.1-.2.74-.48-.06-.65a1.63,1.63,0,0,0,0-.44c-.56-.07-1.68.6-1.79-.1a16.63,16.63,0,0,1-1.87,0c.27-1.14,1.37-1.17,2.36-1.31s1.91-.4,2.74-.54c.25,0,1-.3,1.13-.29.44,0,.71.35,1.11.48a1,1,0,0,0,1.09-.19c.2-.12.45-1,.83-.31l.47.19c.12.13.24.13.21.37l.34,0c0,.15.07.32.1.45-.15.09-.15.19-.26.28.23,0,.35.15.55.2-.11.6-2.1.53-.84,1.14.79.38,1.9-.12,2.73,0a2.58,2.58,0,0,0-.07.34c.4,0,.55,0,.66.38l.16,0C317.32,161.92,314.21,159.8,314,161.29Zm8.44.75c-1-.5-.78-.87-1-1.87s-1.3-1.14-1.24-2.07c-.59,0-1.21-.23-1-.95-.71.16-.83-.3-1.11-.69.06-.46.44-1.23-.19-1.42.32-.56.81-.64.57-1.38.66,0,.94-.67,1.58-.79,0-.13,0-.31,0-.44a10.74,10.74,0,0,1,1.39,0c.08.16-.07.11-.08.17l.09.57c.6,1.08-1.6,1.47-1.44,2.39.23,1.31,2.16,1.35,3.23,1.41a.88.88,0,0,0,.44,1c-1.23.67.81,1.36,1.35,1.34,0,.13.05.31,0,.44.49,0,.91-.32,1.39-.06-.26,1.2,1.19.73.41,2a1.34,1.34,0,0,1,1.13.58C326.59,163.58,323.82,162.71,322.39,162Z"/><path class="cls-24" d="M332,221a1.32,1.32,0,0,0,1.55-.37c.18-.19.22-.55.37-.69s.61-.18.77-.37,0-.64.18-.84.63-.13.88-.35c.53-.49.23-.93.35-1.61.19-1.13,1.37-1.21,2.36-1.75.43-.24,1.09-.47.78-1s-.94-.06-1.5-.2c.12-.86.34-1-.75-1.14a.91.91,0,0,1,.92-1c-.12-.24,0-.48-.07-.72.95,0,.75-1.27.83-1.82a7.7,7.7,0,0,0,.29-1c0-.36-.15-.76-.12-1,.07-.67.63-3.54-.72-3.91a3.26,3.26,0,0,0-.48-.55l-.57.09c.8,1,.36,1.09-.1,2-.31.6.06,1.56-.35,2.1-.23.32-.79.38-1.07.64a4.55,4.55,0,0,0-.68,1c-.15.29-.22.82-.37,1-.31.44-.77.47-1.12.79-.78.73-.5,1.26-.31,2.07a5.15,5.15,0,0,1,0,2.15c-.08.37-.28.76-.38,1.13,0,0-.25.62-.27.49,0,.2.36.44.37.53a7.19,7.19,0,0,1-.39,2.2C332.23,219.44,332.35,220.46,332,221Z"/><path class="cls-24" d="M276.19,237.25c-.22-.25-.4-.75-.62-1.06a21,21,0,0,0-1.36-1.85c-.58-.66-1.46-1.13-1.8-1.91s-.29-1.83-1.19-2.1c.11-.72-.54-1-.41-1.77a2.43,2.43,0,0,1-1.12-.77,3,3,0,0,1-.49-1.3c-.06-.18-.37-.3-.44-.57,0,0,.16-.55.17-.59.16-.57.05-.66.66-1s.77.25,1-.46c.1-.25-.18-.92-.3-1.21-.41-.92-.41-1.5-1.5-1.58-.45-.3-.24-.58-.39-1a16.79,16.79,0,0,1-.64-1.89c-.09-.33,0-1-.19-1.24s-.57-.2-.79-.44c-.74-.82-.24-.85.22-1.35a1.5,1.5,0,0,0,.45-.74s-.21-.25-.15-.4.38-.18.43-.29a4.91,4.91,0,0,0,.81-1.95c.05-.75-.43-1.21-.5-1.91s.31-1.11-.59-1.78c-.44-.32-1.59-.47-1.7-.95-.65-.15-1.59.77-1.6-.38-1.05-.32-.95,1-1.86.82-.22-.58-.87-2-1.52-2.18-.11-.61.7-2.23-.57-2,0-.33,0-.68,0-1-.27-.16-.21-.07-.27-.39-.23-1.15.56-3-.74-3.81-.56-.35-1.2.2-1.8-.28s-.46-1.56-.37-2.14a3.38,3.38,0,0,0-.31-2.19c-.31-.8-.08-1.37-.28-2.18-.33-1.25-.48-2.46-.76-3.79A53.27,53.27,0,0,0,276.16,238c.36,0,.73,0,1.06,0C276.9,237.68,276.49,237.6,276.19,237.25Z"/><path class="cls-24" d="M340.59,235.24v-.13a2.66,2.66,0,0,1-.55,1.07,1.56,1.56,0,0,0-.52.9,2.36,2.36,0,0,1-.26.55s-.34.48-.31.45c-.23.18-.59.22-.82.45s-.28.51-.82.75a5,5,0,0,1-1.13.48c-1,.16-.88-1.13-1.76-1-.13.28-.49.28-.75.42-.27-.45-.63-.25-1-.17a2.93,2.93,0,0,1-1.78,1.55c-.62.14-.52-.09-1.07-.17a1.44,1.44,0,0,0-.7.14c-.26.17-.17.34-.38.49s-.71.26-1.07.49a6.13,6.13,0,0,1-1.08.75c-.56.21-1.08.17-1.63.41a9.48,9.48,0,0,0-1.45.48,1.06,1.06,0,0,0-.68-.23c0,.1,0,.25,0,.36-.33,0-.49.27-.75.45s-.3.05-.45.17a.86.86,0,0,0-.29.38c.4.08.22.23.16.51,0,0-.39.58-.38.56-.42.3-1.43.24-1.64-.29-.25.25-.72.31-.88.61a9.65,9.65,0,0,0-1-.37c-.62-.09-.74.21-1.2.37-.71.25-1.45-.22-2.14-.06-.05-.57-.61-.49-.52.06a1.55,1.55,0,0,0-.83.13.94.94,0,0,0-.93,0c-.64-.64-2.47.79-3,1.25-.12.1-.11.34-.24.46s-.32.14-.44.25-.39.39-.62.56l-.54.42a53,53,0,0,0,32.66-10.22l.28-.21a4,4,0,0,1,.12-.85c.07-.23.87-.8.13-.83.38-.27.14-.4.2-.68S340.73,235.51,340.59,235.24Z"/><path class="cls-24" d="M287.19,153.62s1.24-.57,1.32-.64c.41-.32.12-1,.93-.87.45-.81.93-1.27,1.35-2.05.24,0,.31-.19.46-.3l.47-.47a11.24,11.24,0,0,1-2.36,1.12c-.42.09-.73,0-1.13.11-.94.25-.47.3-.86.94C287.13,151.88,285.88,153.47,287.19,153.62Z"/><g class="cls-46"><path class="cls-47" d="M238.6,160.7a45.87,45.87,0,1,1-64.09-10A45.87,45.87,0,0,1,238.6,160.7Z"/><path class="cls-48" d="M234.73,163.52a41.08,41.08,0,1,1-57.4-9A41.09,41.09,0,0,1,234.73,163.52Z"/></g><path class="cls-49" d="M289.52,145.73c-8.06,4.16-14.16,10.7-16.79,19.07-6.2,19.73,9.16,42.13,34.31,50,22.74,7.14,45.68,0,54.47-16a53.26,53.26,0,0,0-72-53.1Z"/></g></g></g></svg>